<svg fill="none" height="44" viewBox="0 0 65 44" width="65" xmlns="http://www.w3.org/2000/svg">
    <path
        d="M51.25 41.25H12.75C6.95138 41.25 4 36.9406 4 31.625V22H60V31.625C60 36.9406 57.0486 41.25 51.25 41.25Z"
        fill="white" />
    <path
        d="M4 12.375C4 7.05938 6.95138 2.75 12.75 2.75H51.25C57.0486 2.75 60 7.05938 60 12.375V22H4V12.375Z"
        fill="#EC1C24" />
    <path
        d="M38.0001 43.9997H54.0001C55.9771 43.9997 57.6571 43.5537 59.0521 42.7767L38.0001 30.2188V43.9997Z"
        fill="#2E3192" />
    <path
        d="M63.6601 36.21C63.8881 35.193 64.0041 34.116 64.0041 32.999V27.999H49.8941L63.6561 36.21"
        fill="#2E3192" />
    <path
        d="M0.350119 7.75879C0.113122 8.82272 -0.00427238 9.90979 0.000118758 10.9998V15.9998H14.1641L0.350119 7.75879Z"
        fill="#2E3192" />
    <path d="M26.0001 0H10.0001C8.03713 0 6.36813 0.44 4.97913 1.206L26.0001 13.746V0Z"
        fill="#2E3192" />
    <path
        d="M5.04309 42.8262C6.41909 43.5702 8.06609 44.0002 10.0001 44.0002H26.0001V30.3242L5.04309 42.8262Z"
        fill="#2E3192" />
    <path
        d="M0.00012207 28V33C0.00012207 34.151 0.122122 35.26 0.363122 36.303L14.2821 28H0.00012207Z"
        fill="#2E3192" />
    <path d="M59.1151 1.255C57.7091 0.457 56.0061 0 54.0001 0H38.0001V13.851L59.1151 1.255Z"
        fill="#2E3192" />
    <path
        d="M64.0001 15.9995V10.9995C64.0001 9.90554 63.8871 8.85054 63.6681 7.85254L50.0121 15.9995H64.0001Z"
        fill="#2E3192" />
    <path
        d="M50.0121 16L63.6681 7.853C63.0421 4.989 61.5181 2.618 59.1151 1.255L38.0001 13.851V0H36.0001V18H64.0001V16H50.0121Z"
        fill="#E6E7E8" />
    <path
        d="M0.00012207 26V28H14.2821L0.363122 36.303C1.02412 39.158 2.59412 41.502 5.04312 42.826L26.0001 30.324V44H28.0001V26H0.00012207Z"
        fill="#E6E7E8" />
    <path
        d="M64.0001 26H36.0001V44H38.0001V30.219L59.0521 42.778C61.4731 41.43 63.0161 39.072 63.6561 36.212L49.8941 28H64.0001V26Z"
        fill="#E6E7E8" />
    <path
        d="M26.0001 0V13.746L4.97912 1.206C2.54912 2.546 0.996122 4.9 0.349122 7.759L14.1641 16H0.00012207V18H28.0001V0H26.0001Z"
        fill="#E6E7E8" />
    <path d="M36.0001 18V0H28.0001V18H0.00012207V26H28.0001V44H36.0001V26H64.0001V18H36.0001Z"
        fill="#BE1E2D" />
    <path
        d="M21.9381 16.0002L1.88813 4.03125C1.45713 4.67125 1.11113 5.37525 0.825134 6.12525L17.3721 16.0002H21.9351"
        fill="#BE1E2D" />
    <path
        d="M63.0901 38.09L46.2771 28H41.6211L61.9341 40.219C62.4051 39.5608 62.7934 38.8471 63.0901 38.094"
        fill="#BE1E2D" />
    <path
        d="M60.7191 2.39062L37.9691 15.9996L42.5881 16.0026L62.2191 4.24963C61.7811 3.45263 61.3191 2.93862 60.7191 2.39062Z"
        fill="#BE1E2D" />
    <path
        d="M1.81311 39.875C2.26294 40.5601 2.80428 41.1805 3.42211 41.719L26.0631 28H21.5001L1.81311 39.875Z"
        fill="#BE1E2D" />
</svg>
