<svg width="19" height="20" viewBox="0 0 19 20" fill="none" xmlns="http://www.w3.org/2000/svg">
    <path
        d="M15.939 10.5555C15.9285 8.95703 16.7429 7.75234 18.3876 6.86406C17.4677 5.69219 16.0761 5.04766 14.2416 4.92344C12.5046 4.80156 10.6042 5.82344 9.90838 5.82344C9.17301 5.82344 7.4914 4.96563 6.16824 4.96563C3.4376 5.00313 0.535629 6.90156 0.535629 10.7641C0.535629 11.9055 0.770212 13.0844 1.23938 14.2984C1.86669 15.8969 4.12817 19.8133 6.48717 19.75C7.72071 19.7242 8.59314 18.9719 10.1983 18.9719C11.7561 18.9719 12.5626 19.75 13.9385 19.75C16.3185 19.7195 18.3639 16.1594 18.9596 14.5563C15.7677 13.218 15.939 10.6375 15.939 10.5555ZM13.1688 3.40703C14.5051 1.99609 14.3839 0.711719 14.3444 0.25C13.1635 0.310938 11.7982 0.964844 11.0207 1.76875C10.1641 2.63125 9.66062 3.69766 9.76869 4.9C11.0444 4.98672 12.2094 4.40313 13.1688 3.40703Z"
        fill="white" />
</svg>
