<svg width="35" height="30" viewBox="0 0 35 30" fill="none" xmlns="http://www.w3.org/2000/svg">
    <path
        d="M2.1875 12.8571C1.58366 12.8571 1.06812 13.0664 0.640869 13.4849C0.213623 13.9035 0 14.4085 0 15C0 15.5915 0.213623 16.0965 0.640869 16.5151C1.06812 16.9336 1.58366 17.1429 2.1875 17.1429H2.44385L4.40918 28.2254C4.50033 28.7388 4.75098 29.1629 5.16113 29.4978C5.57129 29.8326 6.03841 30 6.5625 30H28.4375C28.9616 30 29.4287 29.8326 29.8389 29.4978C30.249 29.1629 30.4997 28.7388 30.5908 28.2254L32.5562 17.1429H32.8125C33.4163 17.1429 33.9319 16.9336 34.3591 16.5151C34.7864 16.0965 35 15.5915 35 15C35 14.4085 34.7864 13.9035 34.3591 13.4849C33.9319 13.0664 33.4163 12.8571 32.8125 12.8571H2.1875ZM26.7114 26.25C26.4152 26.2277 26.1674 26.1021 25.968 25.8733C25.7686 25.6445 25.6803 25.385 25.7031 25.0949L26.25 18.1306C26.2728 17.8404 26.401 17.5977 26.6345 17.4023C26.8681 17.207 27.133 17.1205 27.4292 17.1429C27.7254 17.1652 27.9732 17.2907 28.1726 17.5195C28.372 17.7483 28.4603 18.0078 28.4375 18.298L27.8906 25.2623C27.8678 25.5413 27.7511 25.7757 27.5403 25.9654C27.3295 26.1551 27.0817 26.25 26.7969 26.25H26.7114ZM19.6875 25.1786V18.2143C19.6875 17.9241 19.7957 17.673 20.0122 17.4609C20.2287 17.2489 20.485 17.1429 20.7812 17.1429C21.0775 17.1429 21.3338 17.2489 21.5503 17.4609C21.7668 17.673 21.875 17.9241 21.875 18.2143V25.1786C21.875 25.4688 21.7668 25.7199 21.5503 25.9319C21.3338 26.144 21.0775 26.25 20.7812 26.25C20.485 26.25 20.2287 26.144 20.0122 25.9319C19.7957 25.7199 19.6875 25.4688 19.6875 25.1786ZM13.125 25.1786V18.2143C13.125 17.9241 13.2332 17.673 13.4497 17.4609C13.6662 17.2489 13.9225 17.1429 14.2188 17.1429C14.515 17.1429 14.7713 17.2489 14.9878 17.4609C15.2043 17.673 15.3125 17.9241 15.3125 18.2143V25.1786C15.3125 25.4688 15.2043 25.7199 14.9878 25.9319C14.7713 26.144 14.515 26.25 14.2188 26.25C13.9225 26.25 13.6662 26.144 13.4497 25.9319C13.2332 25.7199 13.125 25.4688 13.125 25.1786ZM7.10938 25.2623L6.5625 18.298C6.53971 18.0078 6.62801 17.7483 6.82739 17.5195C7.02677 17.2907 7.27458 17.1652 7.5708 17.1429C7.86703 17.1205 8.13192 17.207 8.36548 17.4023C8.59904 17.5977 8.72721 17.8404 8.75 18.1306L9.29688 25.0949C9.31966 25.385 9.23136 25.6445 9.03198 25.8733C8.8326 26.1021 8.5848 26.2277 8.28857 26.25H8.20312C7.91829 26.25 7.67049 26.1551 7.45972 25.9654C7.24894 25.7757 7.13216 25.5413 7.10938 25.2623ZM26.8652 4.88839L28.4546 11.7857H30.7104L28.9844 4.4029C28.7679 3.42076 28.2609 2.61998 27.4634 2.00056C26.6659 1.38114 25.7544 1.07143 24.729 1.07143H21.875C21.875 0.78125 21.7668 0.530134 21.5503 0.31808C21.3338 0.106027 21.0775 0 20.7812 0H14.2188C13.9225 0 13.6662 0.106027 13.4497 0.31808C13.2332 0.530134 13.125 0.78125 13.125 1.07143H10.271C9.24561 1.07143 8.33415 1.38114 7.53662 2.00056C6.7391 2.61998 6.2321 3.42076 6.01562 4.4029L4.28955 11.7857H6.54541L8.13477 4.88839C8.26009 4.39732 8.51929 3.99554 8.91235 3.68304C9.30542 3.37054 9.7583 3.21429 10.271 3.21429H13.125C13.125 3.50446 13.2332 3.75558 13.4497 3.96763C13.6662 4.17969 13.9225 4.28571 14.2188 4.28571H20.7812C21.0775 4.28571 21.3338 4.17969 21.5503 3.96763C21.7668 3.75558 21.875 3.50446 21.875 3.21429H24.729C25.2417 3.21429 25.6946 3.37054 26.0876 3.68304C26.4807 3.99554 26.7399 4.39732 26.8652 4.88839Z"
        fill="#009AAD" />
</svg>
