<svg width="10" height="10" viewBox="0 0 10 10" fill="none" xmlns="http://www.w3.org/2000/svg">
    <path fill-rule="evenodd" clip-rule="evenodd"
        d="M5 0C2.23864 0 0 2.23864 0 5C0 7.76136 2.23864 10 5 10C7.76136 10 10 7.76136 10 5C10 2.23864 7.76136 0 5 0ZM7.16727 4.15455C7.20718 4.10893 7.23756 4.05579 7.25663 3.99826C7.2757 3.94073 7.28307 3.87996 7.27831 3.81954C7.27354 3.75912 7.25674 3.70026 7.2289 3.64642C7.20105 3.59259 7.16272 3.54487 7.11616 3.50606C7.0696 3.46726 7.01575 3.43816 6.95777 3.42048C6.8998 3.4028 6.83887 3.39689 6.77858 3.4031C6.71829 3.40932 6.65985 3.42752 6.6067 3.45665C6.55355 3.48578 6.50676 3.52525 6.46909 3.57273L4.51455 5.91773L3.50318 4.90591C3.41745 4.82311 3.30263 4.77729 3.18345 4.77833C3.06427 4.77937 2.95027 4.82717 2.86599 4.91145C2.78172 4.99572 2.73391 5.10973 2.73288 5.22891C2.73184 5.34809 2.77766 5.46291 2.86045 5.54864L4.22409 6.91227C4.26875 6.95691 4.32223 6.99175 4.3811 7.01457C4.43997 7.0374 4.50295 7.04771 4.56603 7.04484C4.62911 7.04198 4.6909 7.026 4.74746 6.99793C4.80402 6.96986 4.85411 6.93032 4.89455 6.88182L7.16727 4.15455Z"
        fill="#009AAD" />
</svg>
