<svg width="14" height="16" viewBox="0 0 14 16" fill="none" xmlns="http://www.w3.org/2000/svg">
<path d="M12.4597 2.375H12.7106C12.8439 2.37479 12.973 2.42196 13.0748 2.50809C13.1766 2.59422 13.2444 2.71371 13.2663 2.84525L13.6409 5.09525C13.6543 5.1758 13.65 5.25829 13.6283 5.33701C13.6066 5.41572 13.568 5.48877 13.5153 5.55107C13.4625 5.61338 13.3968 5.66344 13.3227 5.6978C13.2486 5.73215 13.168 5.74996 13.0863 5.75H12.2189L11.5327 15.353C11.5224 15.4949 11.4588 15.6276 11.3547 15.7244C11.2505 15.8213 11.1135 15.8751 10.9713 15.875H3.0243C2.88188 15.8754 2.74462 15.8217 2.64022 15.7248C2.53582 15.6279 2.47206 15.4951 2.4618 15.353L1.7778 5.75H0.913804C0.832151 5.74996 0.751486 5.73215 0.677412 5.6978C0.603337 5.66344 0.53763 5.61338 0.484854 5.55107C0.432077 5.48877 0.393498 5.41572 0.371796 5.33701C0.350093 5.25829 0.345788 5.1758 0.359179 5.09525L0.733804 2.84525C0.755671 2.71371 0.823555 2.59422 0.925345 2.50809C1.02714 2.42196 1.15621 2.37479 1.28955 2.375H1.53593L1.4178 0.728C1.41224 0.650892 1.42263 0.573464 1.44832 0.500549C1.47401 0.427635 1.51446 0.3608 1.56714 0.304216C1.61982 0.247633 1.68359 0.202515 1.75449 0.17168C1.82538 0.140845 1.90187 0.124954 1.97918 0.125H12.0164C12.0937 0.124954 12.1702 0.140845 12.2411 0.17168C12.312 0.202515 12.3758 0.247633 12.4285 0.304216C12.4811 0.3608 12.5216 0.427635 12.5473 0.500549C12.573 0.573464 12.5834 0.650892 12.5778 0.728L12.4597 2.375ZM11.3324 2.375L11.4123 1.25H2.5833L2.66318 2.375H11.3324ZM1.6968 4.625H12.4226L12.2347 3.5H1.76543L1.57755 4.625H1.6968ZM2.90505 5.75L3.54743 14.75H10.4482L11.0906 5.75H2.90505Z" fill="white"/>
</svg>
