<svg width="22" height="23" viewBox="0 0 22 23" fill="none" xmlns="http://www.w3.org/2000/svg">
    <path
        d="M7.42727 8.49915H8.85579H7.42727ZM13.1414 14.4994H14.5699H13.1414ZM14.5699 7.74912L7.42727 15.2494L14.5699 7.74912ZM10 1.4339L8.38724 3.12446C8.12292 3.40251 7.76427 3.55898 7.39013 3.55947H4.85023C4.47591 3.55947 4.11692 3.71562 3.85223 3.99356C3.58755 4.2715 3.43885 4.64846 3.43885 5.04153V7.70862C3.43838 8.10149 3.28937 8.4781 3.02458 8.75565L1.41321 10.4522C1.14863 10.7301 1 11.107 1 11.5C1 11.893 1.14863 12.2699 1.41321 12.5478L3.02744 14.2413C3.29171 14.5189 3.44028 14.8954 3.44028 15.2884V17.9555C3.44028 18.7745 4.07168 19.4375 4.85165 19.4375H7.39156C7.76583 19.4375 8.12439 19.5935 8.38867 19.8725L10.0029 21.5661C10.2676 21.8439 10.6265 22 11.0007 22C11.375 22 11.7339 21.8439 11.9985 21.5661L13.6113 19.871C13.8759 19.5935 14.2345 19.4376 14.6084 19.4375H17.1483C17.5227 19.4375 17.8817 19.2814 18.1463 19.0034C18.411 18.7255 18.5597 18.3485 18.5597 17.9555V15.2884C18.5597 14.8954 18.7083 14.5189 18.974 14.2413L20.5868 12.5463C20.8514 12.2684 21 11.8915 21 11.4985C21 11.1055 20.8514 10.7286 20.5868 10.4507L18.9726 8.75716C18.7083 8.47935 18.5598 8.10278 18.5597 7.71012V5.04303C18.5597 4.64996 18.411 4.273 18.1463 3.99506C17.8817 3.71712 17.5227 3.56097 17.1483 3.56097H14.6084C14.2343 3.56048 13.8757 3.40401 13.6113 3.12596L11.9957 1.4339C11.731 1.15607 11.3721 1 10.9979 1C10.6236 1 10.2647 1.15607 10 1.4339V1.4339Z"
        stroke="#009AAD" stroke-width="2" />
</svg>
