<svg width="16" height="15" viewBox="0 0 16 15" fill="none" xmlns="http://www.w3.org/2000/svg">
    <path
        d="M9.66667 5.08333C9.66667 5.5875 9.29167 6 8.83333 6H1.33333C0.875 6 0.5 5.5875 0.5 5.08333C0.5 4.57917 0.875 4.16667 1.33333 4.16667H8.83333C9.29167 4.16667 9.66667 4.57917 9.66667 5.08333ZM0.5 1.41667C0.5 1.92083 0.875 2.33333 1.33333 2.33333H8.83333C9.29167 2.33333 9.66667 1.92083 9.66667 1.41667C9.66667 0.9125 9.29167 0.5 8.83333 0.5H1.33333C0.875 0.5 0.5 0.9125 0.5 1.41667ZM6.33333 8.75C6.33333 8.24583 5.95833 7.83333 5.5 7.83333H1.33333C0.875 7.83333 0.5 8.24583 0.5 8.75C0.5 9.25417 0.875 9.66667 1.33333 9.66667H5.5C5.95833 9.66667 6.33333 9.25417 6.33333 8.75ZM13.0083 6.7975L13.6 6.14667C13.6771 6.06169 13.7687 5.99427 13.8695 5.94827C13.9703 5.90227 14.0784 5.87859 14.1875 5.87859C14.2966 5.87859 14.4047 5.90227 14.5055 5.94827C14.6063 5.99427 14.6979 6.06169 14.775 6.14667L15.3667 6.7975C15.6917 7.155 15.6917 7.7325 15.3667 8.09L14.775 8.74083L13.0083 6.7975ZM12.4167 7.44833L8.11667 12.1783C8.04167 12.2608 8 12.3708 8 12.4992V13.7917C8 14.0483 8.18333 14.25 8.41667 14.25H9.59167C9.7 14.25 9.80833 14.2042 9.88333 14.1125L14.1833 9.3825L12.4167 7.44833Z"
        fill="#009AAD" />
</svg>
