<svg width="13" height="11" viewBox="0 0 13 11" fill="none" xmlns="http://www.w3.org/2000/svg">
    <path
        d="M7.88639 3.66667C7.88639 4.07 7.56377 4.4 7.16945 4.4H0.716945C0.322625 4.4 0 4.07 0 3.66667C0 3.26333 0.322625 2.93333 0.716945 2.93333H7.16945C7.56377 2.93333 7.88639 3.26333 7.88639 3.66667ZM0 0.733333C0 1.13667 0.322625 1.46667 0.716945 1.46667H7.16945C7.56377 1.46667 7.88639 1.13667 7.88639 0.733333C7.88639 0.33 7.56377 0 7.16945 0H0.716945C0.322625 0 0 0.33 0 0.733333ZM5.01861 6.6C5.01861 6.19667 4.69599 5.86667 4.30167 5.86667H0.716945C0.322625 5.86667 0 6.19667 0 6.6C0 7.00333 0.322625 7.33333 0.716945 7.33333H4.30167C4.69599 7.33333 5.01861 7.00333 5.01861 6.6ZM10.7613 5.038L11.2704 4.51733C11.3367 4.44935 11.4155 4.39542 11.5022 4.35862C11.5889 4.32182 11.6819 4.30287 11.7758 4.30287C11.8697 4.30287 11.9627 4.32182 12.0494 4.35862C12.1362 4.39542 12.2149 4.44935 12.2813 4.51733L12.7903 5.038C13.0699 5.324 13.0699 5.786 12.7903 6.072L12.2813 6.59267L10.7613 5.038ZM10.2523 5.55867L6.55288 9.34267C6.48835 9.40867 6.4525 9.49667 6.4525 9.59933V10.6333C6.4525 10.8387 6.61023 11 6.81098 11H7.82187C7.91507 11 8.00827 10.9633 8.0728 10.89L11.7722 7.106L10.2523 5.55867Z"
        fill="#009AAD" />
</svg>
