<svg width="142" height="142" viewBox="0 0 142 142" fill="none" xmlns="http://www.w3.org/2000/svg">
    <path
        d="M17.5503 56.0234C16.802 56.0302 16.0652 55.8388 15.4148 55.4687C14.9377 55.2006 14.5189 54.84 14.1829 54.408C13.8468 53.976 13.6003 53.4814 13.4578 52.953C13.3152 52.4246 13.2795 51.8731 13.3526 51.3307C13.4258 50.7884 13.6064 50.266 13.8838 49.7943C19.231 40.8694 35.5 20.0381 71 20.0381C86.3843 20.0381 99.877 24.079 111.084 32.0443C120.309 38.5813 125.479 45.9808 127.941 49.5447C128.254 49.9939 128.473 50.5011 128.587 51.0363C128.7 51.5716 128.705 52.1241 128.602 52.6614C128.498 53.1987 128.289 53.7099 127.985 54.1649C127.681 54.6198 127.289 55.0094 126.832 55.3107C125.899 55.9277 124.761 56.157 123.662 55.9499C122.562 55.7428 121.586 55.1156 120.941 54.2013C116.484 47.7919 102.895 28.2891 71 28.2891C39.8682 28.2891 25.793 46.236 21.2085 53.9323C20.8401 54.575 20.3068 55.1076 19.6637 55.4753C19.0206 55.8429 18.291 56.0321 17.5503 56.0234Z"
        fill="#009AAD" />
    <path
        d="M88.8859 137.562C88.5319 137.566 88.1788 137.526 87.8348 137.443C62.0834 131.064 52.4679 105.321 52.0768 104.251L52.0158 104.015C51.805 103.271 46.6381 85.6186 54.5702 75.2792C58.2061 70.5643 63.7364 68.1459 71.0388 68.1459C77.8282 68.1459 82.7261 70.2565 86.0931 74.6247C88.8665 78.1913 89.9759 82.59 91.0492 86.8278C93.304 95.6529 94.932 100.287 104.303 100.764C108.419 100.972 111.123 98.565 112.657 96.5154C116.803 90.9269 117.524 81.8162 114.399 73.7732C110.383 63.3922 96.1301 43.8201 71 43.8201C60.2723 43.8201 50.4156 47.2675 42.5113 53.7462C35.9687 59.1128 30.7852 66.6898 28.2891 74.4777C23.6602 88.9772 29.7313 111.769 29.7895 111.977C29.9312 112.508 29.9654 113.061 29.8898 113.605C29.8143 114.149 29.6306 114.672 29.3496 115.144C29.0686 115.616 28.6961 116.026 28.2538 116.352C27.8116 116.677 27.3087 116.911 26.7748 117.039C25.6961 117.326 24.5479 117.179 23.5764 116.629C22.6049 116.08 21.8873 115.171 21.5773 114.099C21.3 113.059 14.8157 88.7498 20.1629 71.9927C25.9871 53.835 43.9618 35.5303 71.0083 35.5303C83.5082 35.5303 95.3175 39.7792 105.174 47.8027C112.807 54.043 119.042 62.4243 122.303 70.8029C126.449 81.5 125.337 93.5062 119.477 101.349C115.572 106.58 110.011 109.315 103.851 109.018C87.8043 108.214 84.9199 97.0118 82.8176 88.8413C80.6543 80.46 79.2704 76.4191 71.0083 76.4191C66.471 76.4191 63.2843 77.6671 61.3013 80.252C58.5972 83.7881 58.3864 89.3156 58.6859 93.3259C58.8826 96.12 59.3564 98.8876 60.1004 101.588C60.7605 103.252 69.3554 124.33 89.9398 129.431C90.4719 129.557 90.9735 129.787 91.4157 130.109C91.8579 130.43 92.2318 130.837 92.5157 131.304C92.7995 131.771 92.9877 132.29 93.0692 132.831C93.1507 133.372 93.124 133.923 92.9906 134.453C92.7394 135.348 92.2023 136.137 91.4612 136.698C90.72 137.259 89.8156 137.563 88.8859 137.562Z"
        fill="#009AAD" />
    <path
        d="M55.8321 135.66C55.2549 135.661 54.6834 135.546 54.1516 135.322C53.6198 135.097 53.1387 134.768 52.7369 134.354C42.4308 123.537 36.6011 111.442 34.4073 96.3188V96.2384C33.1759 86.2263 34.9786 72.0513 43.812 62.3054C50.3323 55.1139 59.4986 51.4585 71.0083 51.4585C84.6203 51.4585 95.3175 57.7875 101.988 69.7327C106.827 78.4108 107.787 87.0583 107.812 87.4133C107.863 87.9607 107.805 88.5127 107.642 89.0377C107.479 89.5627 107.214 90.0504 106.863 90.4729C106.511 90.8954 106.079 91.2444 105.593 91.4999C105.106 91.7554 104.574 91.9123 104.026 91.9618C102.921 92.0816 101.814 91.7623 100.943 91.0727C100.072 90.3831 99.5064 89.3785 99.3695 88.2759C98.6389 83.0872 96.9599 78.0772 94.4161 73.4962C89.2464 64.3744 81.381 59.7372 70.9778 59.7372C61.9919 59.7372 54.9612 62.4413 50.1243 67.7802C43.1519 75.4765 41.804 87.3329 42.7609 95.1762C44.6829 108.55 49.822 119.189 58.8967 128.696C59.2755 129.09 59.5711 129.556 59.7661 130.067C59.9611 130.577 60.0515 131.122 60.0318 131.668C60.0121 132.214 59.8829 132.751 59.6517 133.246C59.4205 133.741 59.092 134.185 58.6859 134.551C57.9039 135.26 56.8876 135.655 55.8321 135.66Z"
        fill="#009AAD" />
    <path
        d="M103.311 123.745C94.2969 123.745 86.6339 121.249 80.5018 116.287C68.1822 106.361 66.801 90.195 66.74 89.5127C66.6532 88.3928 67.0148 87.2843 67.7454 86.431C68.4759 85.5778 69.5154 85.0497 70.6353 84.9629C71.7552 84.8761 72.8637 85.2377 73.717 85.9682C74.5702 86.6987 75.0983 87.7383 75.1851 88.8582C75.2156 89.0967 76.447 102.32 85.9433 109.936C91.5623 114.424 99.0727 116.204 108.328 115.164C109.434 115.03 110.548 115.339 111.427 116.024C112.306 116.709 112.878 117.714 113.018 118.82C113.078 119.366 113.029 119.918 112.874 120.445C112.719 120.972 112.46 121.463 112.113 121.889C111.766 122.315 111.338 122.668 110.853 122.926C110.368 123.185 109.837 123.345 109.29 123.396C107.305 123.627 105.309 123.744 103.311 123.745Z"
        fill="#009AAD" />
    <path
        d="M110.433 13.5316C106.916 11.2435 94.4466 4.4375 71 4.4375C46.3885 4.4375 33.8886 11.9563 31.1235 13.8672C30.9409 13.9793 30.7699 14.1094 30.6132 14.2555C30.5967 14.2715 30.5751 14.2813 30.5522 14.2832C30.1106 14.6687 29.7563 15.1439 29.5129 15.6772C29.2695 16.2104 29.1425 16.7894 29.1405 17.3756C29.1481 17.9251 29.264 18.4676 29.4817 18.9722C29.6993 19.4768 30.0144 19.9335 30.4088 20.3161C30.8033 20.6987 31.2694 20.9997 31.7804 21.2018C32.2913 21.404 32.8372 21.5033 33.3866 21.4941C34.2673 21.4935 35.1267 21.2235 35.8494 20.7204C35.9687 20.6316 46.7269 12.7273 71.0083 12.7273C95.2898 12.7273 106.106 20.6039 106.223 20.6621C106.961 21.2097 107.858 21.5018 108.777 21.4941C109.327 21.5026 109.873 21.4023 110.384 21.1991C110.895 20.996 111.361 20.6939 111.755 20.3102C112.149 19.9265 112.463 19.4687 112.68 18.9632C112.897 18.4577 113.011 17.9144 113.018 17.3645C113.018 16.5407 112.772 15.7357 112.311 15.0528C111.851 14.3698 111.197 13.8401 110.433 13.5316Z"
        fill="#009AAD" />
</svg>
