<svg width="25" height="22" viewBox="0 0 25 22" fill="none" xmlns="http://www.w3.org/2000/svg">
    <path
        d="M22.7181 9.20475H21.8877V9.16671H12.6098V12.8334H18.4358C17.5859 14.9678 15.302 16.5 12.6098 16.5C9.19404 16.5 6.4246 14.0374 6.4246 11C6.4246 7.96267 9.19404 5.50004 12.6098 5.50004C14.1866 5.50004 15.621 6.02896 16.7132 6.89292L19.6291 4.30012C17.7879 2.77433 15.3252 1.83337 12.6098 1.83337C6.91684 1.83337 2.3011 5.93775 2.3011 11C2.3011 16.0623 6.91684 20.1667 12.6098 20.1667C18.3028 20.1667 22.9186 16.0623 22.9186 11C22.9186 10.3854 22.8475 9.78546 22.7181 9.20475Z"
        fill="#FFC107" />
    <path
        d="M3.4897 6.73342L6.87664 8.94212C7.79308 6.92454 10.0126 5.50004 12.6098 5.50004C14.1866 5.50004 15.621 6.02896 16.7132 6.89292L19.6291 4.30012C17.7879 2.77433 15.3252 1.83337 12.6098 1.83337C8.65026 1.83337 5.21641 3.82117 3.4897 6.73342Z"
        fill="#FF3D00" />
    <path
        d="M12.6098 20.1666C15.2726 20.1666 17.692 19.2605 19.5213 17.7869L16.3308 15.3862C15.261 16.1096 13.9538 16.5009 12.6098 16.4999C9.92853 16.4999 7.65185 14.9797 6.79416 12.858L3.43248 15.1612C5.13858 18.1298 8.60334 20.1666 12.6098 20.1666Z"
        fill="#4CAF50" />
    <path
        d="M22.7181 9.20467H21.8877V9.16663H12.6098V12.8333H18.4358C18.0293 13.8491 17.2969 14.7368 16.3292 15.3867L16.3308 15.3858L19.5213 17.7865C19.2956 17.9689 22.9186 15.5833 22.9186 11C22.9186 10.3853 22.8475 9.78538 22.7181 9.20467Z"
        fill="#1976D2" />
</svg>
