<svg width="28" height="28" viewBox="0 0 28 28" fill="none" xmlns="http://www.w3.org/2000/svg">
    <path
        d="M15.2019 0.898127C14.8831 0.579427 14.4508 0.400391 14 0.400391C13.5492 0.400391 13.1169 0.579427 12.7981 0.898127L0.898108 12.7981C0.58844 13.1187 0.417089 13.5482 0.420963 13.9939C0.424836 14.4396 0.603623 14.866 0.918817 15.1812C1.23401 15.4964 1.66039 15.6752 2.10613 15.6791C2.55186 15.6829 2.98128 15.5116 3.30191 15.2019L3.80001 14.7038V25.9C3.80001 26.3509 3.97912 26.7833 4.29793 27.1021C4.61674 27.4209 5.04914 27.6 5.50001 27.6H8.90001C9.35088 27.6 9.78328 27.4209 10.1021 27.1021C10.4209 26.7833 10.6 26.3509 10.6 25.9V22.5C10.6 22.0492 10.7791 21.6168 11.0979 21.2979C11.4167 20.9791 11.8491 20.8 12.3 20.8H15.7C16.1509 20.8 16.5833 20.9791 16.9021 21.2979C17.2209 21.6168 17.4 22.0492 17.4 22.5V25.9C17.4 26.3509 17.5791 26.7833 17.8979 27.1021C18.2167 27.4209 18.6491 27.6 19.1 27.6H22.5C22.9509 27.6 23.3833 27.4209 23.7021 27.1021C24.0209 26.7833 24.2 26.3509 24.2 25.9V14.7038L24.6981 15.2019C25.0187 15.5116 25.4482 15.6829 25.8939 15.6791C26.3396 15.6752 26.766 15.4964 27.0812 15.1812C27.3964 14.866 27.5752 14.4396 27.5791 13.9939C27.5829 13.5482 27.4116 13.1187 27.1019 12.7981L15.2019 0.898127Z"
        fill="white" />
</svg>
