<svg fill="none" height="16" viewBox="0 0 20 16" width="20" xmlns="http://www.w3.org/2000/svg">
    <path
        d="M2.727 1.333C1.974 1.333 1.364 1.93 1.364 2.667V13.333C1.364 14.07 1.974 14.667 2.727 14.667H17.273C18.026 14.667 18.636 14.07 18.636 13.333V2.667C18.636 1.93 18.026 1.333 17.273 1.333H2.727ZM17.273 0C18.779 0 20 1.194 20 2.667V13.333C20 14.806 18.779 16 17.273 16H2.727C1.221 16 0 14.806 0 13.333V2.667C0 1.194 1.221 0 2.727 0H17.273ZM8.167 11.133H4C3.9114 11.1319 3.82347 11.1484 3.74123 11.1813C3.65898 11.2143 3.58405 11.2631 3.5207 11.3251C3.45736 11.387 3.40685 11.4609 3.37207 11.5424C3.33729 11.6239 3.31891 11.7114 3.318 11.8C3.318 12.168 3.623 12.467 4 12.467H8.167C8.25551 12.4679 8.34334 12.4514 8.42547 12.4184C8.5076 12.3854 8.58241 12.3365 8.64565 12.2746C8.70889 12.2126 8.75931 12.1388 8.79403 12.0574C8.82874 11.976 8.84708 11.8885 8.848 11.8C8.84708 11.7115 8.82874 11.624 8.79403 11.5426C8.75931 11.4612 8.70889 11.3874 8.64565 11.3254C8.58241 11.2635 8.5076 11.2146 8.42547 11.1816C8.34334 11.1486 8.25551 11.1321 8.167 11.133ZM13.75 3.333C12.226 3.333 10.985 4.524 10.985 6C10.985 6.773 11.325 7.468 11.869 7.955C10.839 8.563 10.152 9.658 10.152 10.909C10.152 11.266 10.208 11.617 10.317 11.952C10.432 12.302 10.816 12.496 11.174 12.384C11.2585 12.3587 11.3371 12.3168 11.4052 12.2608C11.4733 12.2048 11.5296 12.1357 11.5708 12.0577C11.6119 11.9797 11.6371 11.8943 11.6449 11.8064C11.6526 11.7185 11.6428 11.63 11.616 11.546C11.5492 11.3403 11.5154 11.1253 11.516 10.909C11.516 9.734 12.513 8.776 13.75 8.776C14.987 8.776 15.985 9.734 15.985 10.909C15.985 11.082 15.964 11.251 15.922 11.415C15.9009 11.5007 15.8971 11.5898 15.9107 11.677C15.9244 11.7642 15.9552 11.8478 16.0015 11.923C16.0477 11.9982 16.1084 12.0634 16.1801 12.1149C16.2518 12.1664 16.333 12.2032 16.419 12.223C16.5929 12.2666 16.777 12.2401 16.9315 12.1492C17.0861 12.0583 17.1987 11.9102 17.245 11.737C17.314 11.467 17.348 11.19 17.348 10.909C17.348 9.658 16.661 8.563 15.631 7.953C16.175 7.468 16.515 6.773 16.515 6C16.515 4.524 15.275 3.333 13.75 3.333ZM8.167 7.633H4C3.9114 7.63194 3.82347 7.64837 3.74123 7.68133C3.65898 7.71429 3.58405 7.76314 3.5207 7.82509C3.45736 7.88704 3.40685 7.96088 3.37207 8.04237C3.33729 8.12385 3.31891 8.2114 3.318 8.3C3.318 8.668 3.623 8.967 4 8.967H8.167C8.25551 8.96792 8.34334 8.9514 8.42547 8.91838C8.5076 8.88536 8.58241 8.83649 8.64565 8.77455C8.70889 8.71261 8.75931 8.63883 8.79403 8.5574C8.82874 8.47598 8.84708 8.38851 8.848 8.3C8.84708 8.21149 8.82874 8.12402 8.79403 8.0426C8.75931 7.96117 8.70889 7.88739 8.64565 7.82545C8.58241 7.76351 8.5076 7.71464 8.42547 7.68162C8.34334 7.6486 8.25551 7.63208 8.167 7.633ZM13.75 4.667C14.527 4.667 15.152 5.267 15.152 6C15.152 6.734 14.527 7.333 13.75 7.333C12.973 7.333 12.348 6.733 12.348 6C12.348 5.266 12.973 4.667 13.75 4.667ZM8.167 4.133H4C3.9114 4.13194 3.82347 4.14837 3.74123 4.18133C3.65898 4.21429 3.58405 4.26314 3.5207 4.32509C3.45736 4.38704 3.40685 4.46088 3.37207 4.54237C3.33729 4.62385 3.31891 4.7114 3.318 4.8C3.318 5.168 3.623 5.467 4 5.467H8.167C8.25551 5.46792 8.34334 5.4514 8.42547 5.41838C8.5076 5.38536 8.58241 5.33649 8.64565 5.27455C8.70889 5.21261 8.75931 5.13883 8.79403 5.0574C8.82874 4.97598 8.84708 4.88851 8.848 4.8C8.84708 4.71149 8.82874 4.62402 8.79403 4.5426C8.75931 4.46117 8.70889 4.38739 8.64565 4.32545C8.58241 4.26351 8.5076 4.21464 8.42547 4.18162C8.34334 4.1486 8.25551 4.13208 8.167 4.133Z"
        fill="#009AAD" />
</svg>
