<svg width="14" height="19" viewBox="0 0 14 19" fill="none" xmlns="http://www.w3.org/2000/svg">
    <path
        d="M7 18.1667C8.6576 18.1667 10.2473 17.5082 11.4194 16.3361C12.5915 15.164 13.25 13.5743 13.25 11.9167C13.25 11.195 13.0583 10.5025 12.8333 9.85833C11.4442 11.2308 10.3892 11.9167 9.66667 11.9167C12.9958 6.08333 11.1667 3.58333 6.16667 0.25C6.58334 4.41667 3.83667 6.31167 2.71834 7.36417C1.80611 8.22223 1.1727 9.33456 0.900238 10.5569C0.627776 11.7793 0.728828 13.0554 1.19029 14.2196C1.65175 15.3839 2.45234 16.3826 3.48826 17.0864C4.52417 17.7902 5.74763 18.1666 7 18.1667ZM7.59167 3.3625C10.2925 5.65417 10.3058 7.435 8.21917 11.0908C7.585 12.2017 8.3875 13.5833 9.66667 13.5833C10.24 13.5833 10.82 13.4167 11.4325 13.0875C11.2509 13.7733 10.9127 14.4076 10.4443 14.9405C9.97593 15.4733 9.39025 15.8902 8.73339 16.1582C8.07653 16.4262 7.36642 16.5381 6.65896 16.4851C5.95151 16.432 5.26603 16.2154 4.65651 15.8524C4.04698 15.4894 3.53004 14.9898 3.1464 14.3931C2.76277 13.7963 2.5229 13.1186 2.44568 12.4134C2.36847 11.7082 2.45602 10.9947 2.70145 10.329C2.94687 9.66339 3.34347 9.06381 3.86 8.5775C3.965 8.47917 4.4975 8.00667 4.52083 7.98583C4.87417 7.66917 5.165 7.38833 5.4525 7.08083C6.4775 5.9825 7.21417 4.76417 7.59084 3.3625H7.59167Z"
        fill="#009AAD" />
</svg>
