<svg width="16" height="14" viewBox="0 0 16 14" fill="none" xmlns="http://www.w3.org/2000/svg">
<path d="M14.5 -1.04308e-07H1.5C0.671563 -1.04308e-07 0 0.671562 0 1.5V12.5C0 13.3284 0.671563 14 1.5 14H14.5C15.3284 14 16 13.3284 16 12.5V1.5C16 0.671562 15.3284 -1.04308e-07 14.5 -1.04308e-07ZM4 11.25C3.30966 11.25 2.75 10.6903 2.75 10C2.75 9.30966 3.30966 8.75 4 8.75C4.69034 8.75 5.25 9.30966 5.25 10C5.25 10.6903 4.69034 11.25 4 11.25ZM4 8.25C3.30966 8.25 2.75 7.69034 2.75 7C2.75 6.30966 3.30966 5.75 4 5.75C4.69034 5.75 5.25 6.30966 5.25 7C5.25 7.69034 4.69034 8.25 4 8.25ZM4 5.25C3.30966 5.25 2.75 4.69034 2.75 4C2.75 3.30966 3.30966 2.75 4 2.75C4.69034 2.75 5.25 3.30966 5.25 4C5.25 4.69034 4.69034 5.25 4 5.25ZM13 9.5V10.5C13 10.7071 12.8321 10.875 12.625 10.875H6.375C6.16791 10.875 6 10.7071 6 10.5V9.5C6 9.29291 6.16791 9.125 6.375 9.125H12.625C12.8321 9.125 13 9.29291 13 9.5ZM13 6.5V7.5C13 7.70709 12.8321 7.875 12.625 7.875H6.375C6.16791 7.875 6 7.70709 6 7.5V6.5C6 6.29291 6.16791 6.125 6.375 6.125H12.625C12.8321 6.125 13 6.29291 13 6.5ZM13 3.5V4.5C13 4.70709 12.8321 4.875 12.625 4.875H6.375C6.16791 4.875 6 4.70709 6 4.5V3.5C6 3.29291 6.16791 3.125 6.375 3.125H12.625C12.8321 3.125 13 3.29291 13 3.5Z" fill="white"/>
</svg>
