<svg viewBox="0 0 500 500" xmlns="http://www.w3.org/2000/svg">
    <defs>
        <clipPath id="freepik--clip-path--inject-41">
            <rect style="fill:#263238;stroke:#263238;stroke-linecap:round;stroke-linejoin:round"
                height="211.75" width="130.88" x="156.31" y="94.11"></rect>
        </clipPath>
        <clipPath id="freepik--clip-path-2--inject-41">
            <rect style="fill:#009AAD;stroke:#263238;stroke-linecap:round;stroke-linejoin:round"
                height="185.5" rx="60" width="156.5" x="273.39" y="232.18"></rect>
        </clipPath>
        <clipPath id="freepik--clip-path-3--inject-41">
            <rect style="fill:#009AAD;stroke:#263238;stroke-linecap:round;stroke-linejoin:round"
                height="118" rx="15.25" width="63.06" x="211.33" y="317.68"></rect>
        </clipPath>
        <clipPath id="freepik--clip-path-4--inject-41">
            <path style="fill:#009AAD;stroke:#263238;stroke-linecap:round;stroke-linejoin:round"
                d="M213.29,317.68h18a15.25,15.25,0,0,1,15.25,15.25v99.62a3.13,3.13,0,0,1-3.13,3.13H201.17a3.13,3.13,0,0,1-3.13-3.13V332.93A15.25,15.25,0,0,1,213.29,317.68Z"></path>
        </clipPath>
        <clipPath id="freepik--clip-path-5--inject-41">
            <path style="fill:#fff;stroke:#263238;stroke-linecap:round;stroke-linejoin:round"
                d="M270.39,344.35s-9.67-1-9.67,2.33,4.33,5.33,12.67,5.67a72.41,72.41,0,0,0,14-.67S276.39,345.68,270.39,344.35Z"></path>
        </clipPath>
        <clipPath id="freepik--clip-path-6--inject-41">
            <path style="fill:#fff;stroke:#263238;stroke-linecap:round;stroke-linejoin:round"
                d="M377.58,251c-9.93-12.26-31.54-13.43-45.85-11.1,0,0-15.77,4.68-18.69,11.39s-18.65,36.36-18.65,36.36-18,10.25-24.83,12.88c-5,1.94-12.44,3.29-16,3.86-2.9-1.3-11.09-4.9-13.4-4.9-2.83,0-6.22,5.66-4.53,7.35s7.49,5.51,12.14,5.17c1.61,1.63,43.35-6.28,47.69-6.94s25.48-29.54,25.48-29.54,1.46,26-.29,36.21-5.84,12-4.67,12.56,9.63,5.26,30.66,5.55,31.25-7,31.25-7,7.3-36.21,8.47-45.56S387.51,263.3,377.58,251Z"></path>
        </clipPath>
        <clipPath id="freepik--clip-path-7--inject-41">
            <path style="fill:#fff;stroke:#263238;stroke-linecap:round;stroke-linejoin:round"
                d="M331.73,239.93S316,244.61,313,251.32s-18.65,36.36-18.65,36.36-6.54,4.15-14.85,8.26a23.66,23.66,0,0,1,5.94,10.82c4.92-.82,8.75-1.48,10-1.66,4.34-.67,25.48-29.54,25.48-29.54s1.46,26-.29,36.21c-1.64,9.55-5.31,11.71-4.83,12.43,1.86,3.68,1.86,6.9,13.11,8,3.69.46,12.64-2.36,17.71-2.29,21,.29,31.25-7,31.25-7s7.3-36.21,8.47-45.56,1.17-14-8.76-26.28S346,237.6,331.73,239.93Z"></path>
        </clipPath>
        <clipPath id="freepik--clip-path-8--inject-41">
            <path style="fill:#fff;stroke:#263238;stroke-linecap:round;stroke-linejoin:round"
                d="M312.16,348s20.15,6.71,27.16,6.71,25.7-2.33,25.11,2.63-6.71,5.84-16.06,5S309,356.75,309,356.75Z"></path>
        </clipPath>
        <clipPath id="freepik--clip-path-9--inject-41">
            <path style="fill:#009AAD;stroke:#263238;stroke-linecap:round;stroke-linejoin:round"
                d="M397.14,317.68h18a15.25,15.25,0,0,1,15.25,15.25v99.62a3.13,3.13,0,0,1-3.13,3.13H385a3.13,3.13,0,0,1-3.13-3.13V332.93a15.25,15.25,0,0,1,15.25-15.25Z"></path>
        </clipPath>
        <clipPath id="freepik--clip-path-10--inject-41">
            <path style="fill:#fff;stroke:#263238;stroke-linecap:round;stroke-linejoin:round"
                d="M322.49,205.77c-3.22,5.46-3.21,12.72-1.26,18.95.59,1.87-3.7,4.7-3.7,5.87s3.21,1.46,3.21,1.46,3.59,11.52,6.51,12.1,15.1-5.09,17.14-6.55,1.76-16.06-1.75-22.2S328.62,200.8,322.49,205.77Z"></path>
        </clipPath>
        <clipPath id="freepik--clip-path-11--inject-41">
            <path style="fill:#fff;stroke:#263238;stroke-linecap:round;stroke-linejoin:round"
                d="M383.71,260.08c3.21,4.68,5.55,7.6,3.8,14s-32.42,50.81-36.22,50.52-6.71-2-8.47-7,5-12.85,5-12.85l20.6-36.08s3.91-5.67,8.54-7.57"></path>
        </clipPath>
        <clipPath id="freepik--clip-path-12--inject-41">
            <path style="fill:#fff;stroke:#263238;stroke-linecap:round;stroke-linejoin:round"
                d="M354,311.52c-2-7-15.21-42.56-15.21-44.72,0-2.34.58-19.86.58-19.86l-1.17-1.75s-2.92-4.09-4.38-4.09-1.75,1.75-2.33,2.63-3.8,1.46-4.39,2.92l-.58,1.46a4.19,4.19,0,0,0-1.75,2.92c-.29,2.05,4.67,13.14,5.26,16.06s7.88,41.18,9.63,48.48,6.13,14,8.18,14c0,0,5.26-3.51,6.72-7.89"></path>
        </clipPath>
        <clipPath id="freepik--clip-path-13--inject-41">
            <path style="fill:#fff;stroke:#263238;stroke-linecap:round;stroke-linejoin:round"
                d="M354,311.52c-1.14-3.81-4.78-14.07-8.12-23.5-4.42,4.86-7.75,7.41-10.09,8.74,1.65,8.36,3.19,15.95,3.87,18.81,1.75,7.3,6.13,14,8.18,14,0,0,5.26-3.51,6.72-7.89"></path>
        </clipPath>
    </defs>
    <g id="freepik--background-simple--inject-41">
        <path style="fill:#009AAD"
            d="M432.57,148.45s-26.65-50.8-85.49-58.33-99.92,29.16-143.22,48c-22.67,9.85-48.57,6-72.64,10.8-77,15.25-106,110.79-73.91,165.13,27.76,47,76.61,71.5,151,77.15s126.57,12.23,193.18-33.87S463.66,215.25,432.57,148.45Z"></path>
        <path style="fill:#fff;opacity:0.75"
            d="M432.57,148.45s-26.65-50.8-85.49-58.33-99.92,29.16-143.22,48c-22.67,9.85-48.57,6-72.64,10.8-77,15.25-106,110.79-73.91,165.13,27.76,47,76.61,71.5,151,77.15s126.57,12.23,193.18-33.87S463.66,215.25,432.57,148.45Z"></path>
    </g>
    <g id="freepik--Plants--inject-41">
        <path style="fill:#009AAD"
            d="M131.91,211.94s0-5.33-7.47-12.8-12.27-11.74-12.27-11.74-3.74,12.27,3.2,19.74a131.73,131.73,0,0,0,16.54,14.41Z"></path>
        <path style="fill:#009AAD"
            d="M121.07,245.27s0-5.34-7.47-12.81-12.27-11.74-12.27-11.74-3.74,12.28,3.2,19.75a130.45,130.45,0,0,0,16.54,14.4Z"></path>
        <path style="fill:#009AAD"
            d="M131.44,221s.56-5.3,8.78-11.94,13.45-10.38,13.45-10.38,2.41,12.6-5.27,19.29a131.09,131.09,0,0,1-18,12.58Z"></path>
        <path style="fill:#009AAD"
            d="M118.34,260.39s1.12-5.22,10-11,14.46-8.91,14.46-8.91,1.08,12.79-7.27,18.64a130.89,130.89,0,0,1-19.19,10.62Z"></path>
        <path style="fill:#009AAD"
            d="M120.81,303.3s0-5.34,7.47-12.81,12.27-11.74,12.27-11.74,3.73,12.27-3.2,19.74a131.73,131.73,0,0,1-16.54,14.41Z"></path>
        <path style="fill:#009AAD"
            d="M120.68,313.77s.76-5.28-5.57-13.74-10.48-13.36-10.48-13.36-5.44,11.61.36,20a131.12,131.12,0,0,0,14.33,16.62Z"></path>
        <path style="fill:#009AAD"
            d="M113.31,344.81s0-5.34,7.47-12.81,12.28-11.74,12.28-11.74,3.73,12.28-3.2,19.75a131,131,0,0,1-16.55,14.4Z"></path>
        <path style="fill:#009AAD"
            d="M118.3,373s-1.35-5.16,4-14.28,8.9-14.47,8.9-14.47,6.72,10.93,1.9,19.91a131.2,131.2,0,0,1-12.35,18.13Z"></path>
        <path style="fill:none;stroke:#263238;stroke-linecap:round;stroke-linejoin:round"
            d="M132.59,210.58a152.88,152.88,0,0,1-2.05,16.56c-2.95,15.26-10.33,25.1-13.29,38.89s5.53,31.53,3.26,49.23-9.16,27.54-7.2,39.35,12.31,43.81,12.31,43.81"></path>
        <line style="fill:none;stroke:#263238;stroke-linecap:round;stroke-linejoin:round"
            x1="131.37" x2="139.42" y1="224.58" y2="218.4"></line>
        <line style="fill:none;stroke:#263238;stroke-linecap:round;stroke-linejoin:round"
            x1="131.74" x2="128.37" y1="217.46" y2="211.47"></line>
        <path style="fill:none;stroke:#263238;stroke-linecap:round;stroke-linejoin:round"
            d="M117.7,265.39s6.74-5.05,13.67-10.11"></path>
        <path style="fill:none;stroke:#263238;stroke-linecap:round;stroke-linejoin:round"
            d="M121.07,254.87s-5.62-11-12-18.31"></path>
        <path style="fill:none;stroke:#263238;stroke-linecap:round;stroke-linejoin:round"
            d="M121.07,310.89a83.31,83.31,0,0,1,14.42-19.29"></path>
        <path style="fill:none;stroke:#263238;stroke-linecap:round;stroke-linejoin:round"
            d="M119.76,318.38a94.08,94.08,0,0,0-7.3-13.86c-3.93-5.8-4.5-6.55-4.5-6.55"></path>
        <path style="fill:none;stroke:#263238;stroke-linecap:round;stroke-linejoin:round"
            d="M113.31,354.61a89.69,89.69,0,0,1,6.07-12.27,78.39,78.39,0,0,1,7.87-10.3"></path>
        <path style="fill:none;stroke:#263238;stroke-linecap:round;stroke-linejoin:round"
            d="M120.74,382.24s-.79-6.39,2-11.82,6-12.54,7.31-15.35"></path>
        <path style="fill:#009AAD"
            d="M83,283.23s-.58-3.35,3.3-8.84,6.42-8.7,6.42-8.7,3.67,7.29.13,12.73A83.39,83.39,0,0,1,84,289.25Z"></path>
        <path style="fill:#009AAD"
            d="M93.41,303s-.58-3.35,3.29-8.84,6.42-8.7,6.42-8.7,3.68,7.29.14,12.73A83.39,83.39,0,0,1,94.45,309Z"></path>
        <path style="fill:#009AAD"
            d="M84.27,288.88s-.93-3.27-6.8-6.54-9.56-5-9.56-5-.15,8.16,5.4,11.53A84.24,84.24,0,0,0,86,294.76Z"></path>
        <path style="fill:#009AAD"
            d="M96.76,312.13s-1.27-3.15-7.45-5.78-10-4-10-4,.71,8.13,6.58,10.9A83.46,83.46,0,0,0,99,317.8Z"></path>
        <path style="fill:#009AAD"
            d="M99.87,339.31s-.58-3.35-6.07-7.22-9-6-9-6-1,8.1,4.15,12a83.65,83.65,0,0,0,11.94,7.24Z"></path>
        <path style="fill:#009AAD"
            d="M101.09,345.86s-1-3.23,2-9.22,5.12-9.52,5.12-9.52,4.68,6.7,2,12.58a83.13,83.13,0,0,1-7.18,12Z"></path>
        <path style="fill:#009AAD"
            d="M110.46,372.85s.39-3.37,5.66-7.55,8.61-6.53,8.61-6.53,1.47,8-3.46,12.25a83.27,83.27,0,0,1-11.5,7.9Z"></path>
        <path style="fill:#009AAD"
            d="M109.08,364.53s-.58-3.35-6.08-7.22-9-6-9-6-1,8.1,4.15,12a83.65,83.65,0,0,0,11.94,7.24Z"></path>
        <path style="fill:#009AAD"
            d="M109,382.71s.29-3.38-4-8.52-7.16-8.1-7.16-8.1-3,7.58,1,12.69a83.37,83.37,0,0,0,9.72,10Z"></path>
        <path style="fill:none;stroke:#263238;stroke-linecap:round;stroke-linejoin:round"
            d="M82.42,282.44a96.5,96.5,0,0,0,3.08,10.17c3.51,9.25,9.21,14.62,12.55,22.94s0,20.37,3.31,31.23,8.73,16.27,8.78,23.9-3,28.8-3,28.8"></path>
        <line style="fill:none;stroke:#263238;stroke-linecap:round;stroke-linejoin:round" x1="84.7"
            x2="78.99" y1="291.09" y2="288.09"></line>
        <line style="fill:none;stroke:#263238;stroke-linecap:round;stroke-linejoin:round" x1="83.7"
            x2="85.16" y1="286.67" y2="282.55"></line>
        <path style="fill:none;stroke:#263238;stroke-linecap:round;stroke-linejoin:round"
            d="M97.71,315.2s-4.78-2.44-9.67-4.85"></path>
        <path style="fill:none;stroke:#263238;stroke-linecap:round;stroke-linejoin:round"
            d="M94.45,309A68.49,68.49,0,0,1,100,296.19"></path>
        <path style="fill:none;stroke:#263238;stroke-linecap:round;stroke-linejoin:round"
            d="M100.53,344.1A52.94,52.94,0,0,0,89.4,333.57"></path>
        <path style="fill:none;stroke:#263238;stroke-linecap:round;stroke-linejoin:round"
            d="M102.17,348.65a59.33,59.33,0,0,1,3.07-9.48c1.84-4.07,2.11-4.6,2.11-4.6"></path>
        <path style="fill:none;stroke:#263238;stroke-linecap:round;stroke-linejoin:round"
            d="M109.88,376.46s3.79-4.65,6.15-6.39a33.43,33.43,0,0,0,4-3.47"></path>
        <path style="fill:none;stroke:#263238;stroke-linecap:round;stroke-linejoin:round"
            d="M110.14,370.68a57.45,57.45,0,0,0-5.14-7A50,50,0,0,0,99,358"></path>
        <path style="fill:none;stroke:#263238;stroke-linecap:round;stroke-linejoin:round"
            d="M108.49,388.8a14.56,14.56,0,0,0-2.55-7.19c-2.35-3.1-5.12-7.21-6.25-8.83"></path>
        <path style="fill:#263238;stroke:#263238;stroke-linecap:round;stroke-linejoin:round"
            d="M91.92,395.78h48.87a0,0,0,0,1,0,0v16.9a3.5,3.5,0,0,1-3.5,3.5H95.42a3.5,3.5,0,0,1-3.5-3.5v-16.9A0,0,0,0,1,91.92,395.78Z"></path>
        <path style="fill:#263238;stroke:#263238;stroke-linecap:round;stroke-linejoin:round"
            d="M140.36,402.16H91.92a3.83,3.83,0,0,1-3.83-3.83h0a3.83,3.83,0,0,1,3.83-3.82h48.44a3.82,3.82,0,0,1,3.82,3.82h0A3.82,3.82,0,0,1,140.36,402.16Z"></path>
        <line style="fill:none;stroke:#fff;stroke-linecap:round;stroke-linejoin:round" x1="93.84"
            x2="129.02" y1="402.33" y2="402.33"></line>
        <line style="fill:none;stroke:#fff;stroke-linecap:round;stroke-linejoin:round" x1="132.33"
            x2="138.12" y1="402.33" y2="402.33"></line>
    </g>
    <g id="freepik--Window--inject-41">
        <line style="fill:none;stroke:#263238;stroke-linecap:round;stroke-linejoin:round" x1="34.14"
            x2="460.05" y1="408.26" y2="408.26"></line>
        <line style="fill:none;stroke:#263238;stroke-linecap:round;stroke-linejoin:round" x1="34.14"
            x2="460.05" y1="259.26" y2="259.26"></line>
        <line style="fill:none;stroke:#263238;stroke-linecap:round;stroke-linejoin:round"
            x1="429.05" x2="429.05" y1="259.08" y2="84.68"></line>
        <line style="fill:none;stroke:#263238;stroke-linecap:round;stroke-linejoin:round"
            x1="416.05" x2="416.05" y1="259.08" y2="84.68"></line>
        <line style="fill:none;stroke:#263238;stroke-linecap:round;stroke-linejoin:round"
            x1="342.55" x2="342.55" y1="259.08" y2="84.68"></line>
        <line style="fill:none;stroke:#263238;stroke-linecap:round;stroke-linejoin:round"
            x1="329.55" x2="329.55" y1="259.08" y2="84.68"></line>
        <line style="fill:none;stroke:#263238;stroke-linecap:round;stroke-linejoin:round"
            x1="256.05" x2="256.05" y1="259.08" y2="84.68"></line>
        <line style="fill:none;stroke:#263238;stroke-linecap:round;stroke-linejoin:round"
            x1="243.05" x2="243.05" y1="259.08" y2="84.68"></line>
        <line style="fill:none;stroke:#263238;stroke-linecap:round;stroke-linejoin:round"
            x1="169.55" x2="169.55" y1="259.08" y2="84.68"></line>
        <line style="fill:none;stroke:#263238;stroke-linecap:round;stroke-linejoin:round"
            x1="156.55" x2="156.55" y1="259.08" y2="84.68"></line>
        <line style="fill:none;stroke:#263238;stroke-linecap:round;stroke-linejoin:round" x1="83.05"
            x2="83.05" y1="259.08" y2="84.68"></line>
        <line style="fill:none;stroke:#263238;stroke-linecap:round;stroke-linejoin:round" x1="70.05"
            x2="70.05" y1="259.08" y2="84.68"></line>
    </g>
    <g id="freepik--Device--inject-41">
        <rect style="fill:#fff;stroke:#263238;stroke-linecap:round;stroke-linejoin:round"
            height="271.34" rx="7.67" width="143.65" x="149.93" y="64.32"></rect>
        <rect style="fill:#263238" height="211.75" width="130.88" x="156.31" y="94.11"></rect>
        <g style="clip-path:url(#freepik--clip-path--inject-41)">
            <polygon style="fill:#fff;opacity:0.30000000000000004"
                points="287.19 234.71 165.19 305.86 287.19 305.86 287.19 234.71"></polygon>
            <rect style="fill:#fff" height="17.85" rx="5" width="106.53" x="168.49"
                y="170.98"></rect>
            <rect style="fill:#009AAD" height="11.36" width="9.08" x="217.21" y="174.22"></rect>
            <rect style="fill:#009AAD" height="11.36" width="9.08" x="206.25" y="174.22"></rect>
            <rect style="fill:#009AAD" height="11.36" width="9.08" x="195.28" y="174.22"></rect>
            <rect style="fill:#009AAD" height="11.36" width="9.08" x="184.31" y="174.22"></rect>
            <path style="fill:#009AAD" d="M182.42,174.22H178a5.68,5.68,0,1,0,0,11.36h4.47Z"></path>
            <rect style="fill:#009AAD" height="11.36" width="9.08" x="228.18" y="174.22"></rect>
            <path style="fill:#fff" d="M193.27,156h.57v7.2h4.43v.51h-5Z"></path>
            <path style="fill:#fff"
                d="M198.82,159.84a4,4,0,1,1,4,3.9A3.85,3.85,0,0,1,198.82,159.84Zm7.43,0a3.44,3.44,0,1,0-3.43,3.38A3.32,3.32,0,0,0,206.25,159.84Z"></path>
            <path style="fill:#fff"
                d="M213.43,161.52H209l-1,2.17h-.6l3.54-7.71h.56l3.54,7.71h-.6Zm-.21-.47-2-4.45-2,4.45Z"></path>
            <path style="fill:#fff"
                d="M216.42,156h3.05a3.86,3.86,0,1,1,0,7.71h-3.05Zm3,7.2a3.35,3.35,0,1,0,0-6.69H217v6.69Z"></path>
            <path style="fill:#fff" d="M225.5,156h.57v7.71h-.57Z"></path>
            <path style="fill:#fff"
                d="M235,156v7.71h-.46L229.31,157v6.69h-.56V156h.47l5.24,6.69V156Z"></path>
            <path style="fill:#fff"
                d="M243.2,159.87h.54v2.88a4,4,0,0,1-2.75,1,3.91,3.91,0,1,1,0-7.81,3.78,3.78,0,0,1,2.78,1.06l-.36.37a3.24,3.24,0,0,0-2.41-.91,3.39,3.39,0,1,0,2.19,6.07Z"></path>
            <path style="fill:#fff"
                d="M245.61,163.26a.47.47,0,1,1,.93,0,.47.47,0,1,1-.93,0Z"></path>
            <path style="fill:#fff"
                d="M247.81,163.26a.47.47,0,1,1,.93,0,.47.47,0,1,1-.93,0Z"></path>
            <path style="fill:#fff" d="M250,163.26a.47.47,0,1,1,.93,0,.47.47,0,1,1-.93,0Z"></path>
        </g>
        <rect style="fill:none;stroke:#263238;stroke-linecap:round;stroke-linejoin:round"
            height="211.75" width="130.88" x="156.31" y="94.11"></rect>
        <path style="fill:#263238"
            d="M236,79.29H207.52a1.94,1.94,0,0,1-1.94-1.94h0a1.94,1.94,0,0,1,1.94-1.94H236a1.94,1.94,0,0,1,1.94,1.94h0A1.94,1.94,0,0,1,236,79.29Z"></path>
        <path
            style="fill:#fff;stroke:#263238;stroke-linecap:round;stroke-linejoin:round;stroke-width:0.704333px"
            d="M229.51,317.82a7.76,7.76,0,1,0-7.76,7.76A7.75,7.75,0,0,0,229.51,317.82Z"></path>
        <rect style="fill:#263238" height="7.87" width="7.87" x="217.82" y="313.89"></rect>
    </g>
    <g id="freepik--Shadow--inject-41">
        <ellipse style="fill:#263238;stroke:#263238;stroke-linecap:round;stroke-linejoin:round"
            cx="296.02" cy="431.62" rx="176.8" ry="16.18"></ellipse>
    </g>
    <g id="freepik--Character--inject-41">
        <rect style="fill:#009AAD" height="185.5" rx="60" width="156.5" x="273.39"
            y="232.18"></rect>
        <g style="clip-path:url(#freepik--clip-path-2--inject-41)">
            <path style="opacity:0.30000000000000004"
                d="M378.48,232.8c-.69-.1-1.37-.18-2.06-.26l-1-.09c-.62-.06-1.25-.11-1.88-.15l-.89-.05c-.92,0-1.84-.07-2.77-.07H350.82l-.45,123.25s33.72-.5,36.69-2.48,13.88-76.36,12.89-85.28-20.82-22.81-20.82-22.81v-7.17A60,60,0,0,1,414,292.18v65.5a60,60,0,0,1-60,60h15.87a60,60,0,0,0,60-60v-65.5A60,60,0,0,0,378.48,232.8Z"></path>
        </g>
        <rect style="fill:none;stroke:#263238;stroke-linecap:round;stroke-linejoin:round"
            height="185.5" rx="60" width="156.5" x="273.39" y="232.18"></rect>
        <rect style="fill:#009AAD" height="118" rx="15.25" width="63.06" x="211.33"
            y="317.68"></rect>
        <g style="clip-path:url(#freepik--clip-path-3--inject-41)">
            <rect style="opacity:0.30000000000000004" height="118" rx="15.25" width="63.06"
                x="211.33" y="317.68"></rect>
        </g>
        <rect style="fill:none;stroke:#263238;stroke-linecap:round;stroke-linejoin:round"
            height="118" rx="15.25" width="63.06" x="211.33" y="317.68"></rect>
        <path style="fill:#009AAD"
            d="M213.29,317.68h18a15.25,15.25,0,0,1,15.25,15.25v99.62a3.13,3.13,0,0,1-3.13,3.13H201.17a3.13,3.13,0,0,1-3.13-3.13V332.93A15.25,15.25,0,0,1,213.29,317.68Z"></path>
        <g style="clip-path:url(#freepik--clip-path-4--inject-41)">
            <path style="opacity:0.30000000000000004"
                d="M231.29,317.68h-7.66a15.25,15.25,0,0,1,15.25,15.25v87.5a15.25,15.25,0,0,1-15.25,15.25H243.9a2.64,2.64,0,0,0,2.64-2.65V332.93A15.25,15.25,0,0,0,231.29,317.68Z"></path>
        </g>
        <path style="fill:none;stroke:#263238;stroke-linecap:round;stroke-linejoin:round"
            d="M213.29,317.68h18a15.25,15.25,0,0,1,15.25,15.25v99.62a3.13,3.13,0,0,1-3.13,3.13H201.17a3.13,3.13,0,0,1-3.13-3.13V332.93A15.25,15.25,0,0,1,213.29,317.68Z"></path>
        <path style="fill:#009AAD;stroke:#263238;stroke-linecap:round;stroke-linejoin:round"
            d="M255.89,350.68H384.11a13,13,0,0,1,13,13V432.3a3.38,3.38,0,0,1-3.38,3.38H246.27a3.38,3.38,0,0,1-3.38-3.38V363.68A13,13,0,0,1,255.89,350.68Z"></path>
        <line style="fill:none;stroke:#263238;stroke-linecap:round;stroke-linejoin:round"
            x1="242.89" x2="382.63" y1="390.18" y2="390.18"></line>
        <path style="fill:#fff"
            d="M270.39,344.35s-9.67-1-9.67,2.33,4.33,5.33,12.67,5.67a72.41,72.41,0,0,0,14-.67S276.39,345.68,270.39,344.35Z"></path>
        <g style="clip-path:url(#freepik--clip-path-5--inject-41)">
            <path style="opacity:0.15"
                d="M270.39,344.35s-9.67-1-9.67,2.33,4.33,5.33,12.67,5.67a72.41,72.41,0,0,0,14-.67S276.39,345.68,270.39,344.35Z"></path>
        </g>
        <path style="fill:none;stroke:#263238;stroke-linecap:round;stroke-linejoin:round"
            d="M270.39,344.35s-9.67-1-9.67,2.33,4.33,5.33,12.67,5.67a72.41,72.41,0,0,0,14-.67S276.39,345.68,270.39,344.35Z"></path>
        <path style="fill:#263238;stroke:#263238;stroke-linecap:round;stroke-linejoin:round"
            d="M318.29,324s-9.63,1.17-11.39,1.17-37.38-14.31-44.38-14.31-9.93,14.89.29,24.53S313,357,334.65,355.87s36.21-16.06,36.21-26.28-23.95-3.51-33.58-6.14S318.29,324,318.29,324Z"></path>
        <path style="fill:none;stroke:#fff;stroke-linecap:round;stroke-linejoin:round"
            d="M313,328.13s9,5.84,11.68,11.09"></path>
        <path style="fill:#fff"
            d="M377.58,251c-9.93-12.26-31.54-13.43-45.85-11.1,0,0-15.77,4.68-18.69,11.39s-18.65,36.36-18.65,36.36-18,10.25-24.83,12.88c-5,1.94-12.44,3.29-16,3.86-2.9-1.3-11.09-4.9-13.4-4.9-2.83,0-6.22,5.66-4.53,7.35s7.49,5.51,12.14,5.17c1.61,1.63,43.35-6.28,47.69-6.94s25.48-29.54,25.48-29.54,1.46,26-.29,36.21-5.84,12-4.67,12.56,9.63,5.26,30.66,5.55,31.25-7,31.25-7,7.3-36.21,8.47-45.56S387.51,263.3,377.58,251Z"></path>
        <g style="clip-path:url(#freepik--clip-path-6--inject-41)">
            <path style="fill:#009AAD"
                d="M284.36,303.41s-19.75,5-26.6,6.72c-3.39.85-7.2,1.49-10.18,1.92h.17c1.36,1.38,31.45-4.07,43.31-6.18Z"></path>
            <path style="fill:#fff;opacity:0.5"
                d="M284.36,303.41s-19.75,5-26.6,6.72c-3.39.85-7.2,1.49-10.18,1.92h.17c1.36,1.38,31.45-4.07,43.31-6.18Z"></path>
        </g>
        <path style="fill:none;stroke:#263238;stroke-linecap:round;stroke-linejoin:round"
            d="M377.58,251c-9.93-12.26-31.54-13.43-45.85-11.1,0,0-15.77,4.68-18.69,11.39s-18.65,36.36-18.65,36.36-18,10.25-24.83,12.88c-5,1.94-12.44,3.29-16,3.86-2.9-1.3-11.09-4.9-13.4-4.9-2.83,0-6.22,5.66-4.53,7.35s7.49,5.51,12.14,5.17c1.61,1.63,43.35-6.28,47.69-6.94s25.48-29.54,25.48-29.54,1.46,26-.29,36.21-5.84,12-4.67,12.56,9.63,5.26,30.66,5.55,31.25-7,31.25-7,7.3-36.21,8.47-45.56S387.51,263.3,377.58,251Z"></path>
        <path style="fill:#fff;stroke:#263238;stroke-linecap:round;stroke-linejoin:round"
            d="M253.54,304.42s-3.13-5-4.29-6-3.49-1.66-5.65-2.49-5-4-5.15-3.16-.5,1.83,1.33,3.32a23,23,0,0,0,3.82,2.5s-2.49,1.82-2.33,4.15,4.32,3,7.64,3.49"></path>
        <polygon style="fill:#263238;stroke:#263238;stroke-linecap:round;stroke-linejoin:round"
            points="224.69 285.4 219.14 287.48 241.9 306.35 244.52 301.18 224.69 285.4"></polygon>
        <path style="fill:#fff;stroke:#263238;stroke-linecap:round;stroke-linejoin:round"
            d="M237.12,308.06l-9.64-6.82s-2.49-7.64-.83-7.8,1.5,5.81,1.5,5.81l1.49,1.16s-.66-5.48.17-5.65,1.16,1.17,1.33,2.16,1,3.66,1,3.66l1.17.66a35.45,35.45,0,0,1-.17-4.65c.17-.83,1.33-.33,1.5.83s1.33,5.82,1.33,5.82,2-5.65,2.49-4.16-.17,4.66-.17,4.66,4.65,2.82,5,4.32"></path>
        <path style="fill:none;stroke:#263238;stroke-linecap:round;stroke-linejoin:round"
            d="M236,303.24s2.42,5.73,3.68,6.48"></path>
        <path style="fill:none;stroke:#263238;stroke-linecap:round;stroke-linejoin:round"
            d="M233.3,301.24a46.27,46.27,0,0,0,1.06,5"></path>
        <path style="fill:none;stroke:#263238;stroke-linecap:round;stroke-linejoin:round"
            d="M229.64,300.41a6.1,6.1,0,0,0,1.7,3.28"></path>
        <path style="fill:#fff"
            d="M331.73,239.93S316,244.61,313,251.32s-18.65,36.36-18.65,36.36-6.54,4.15-14.85,8.26a23.66,23.66,0,0,1,5.94,10.82c4.92-.82,8.75-1.48,10-1.66,4.34-.67,25.48-29.54,25.48-29.54s1.46,26-.29,36.21c-1.64,9.55-5.31,11.71-4.83,12.43,1.86,3.68,1.86,6.9,13.11,8,3.69.46,12.64-2.36,17.71-2.29,21,.29,31.25-7,31.25-7s7.3-36.21,8.47-45.56,1.17-14-8.76-26.28S346,237.6,331.73,239.93Z"></path>
        <g style="clip-path:url(#freepik--clip-path-7--inject-41)">
            <path style="opacity:0.15"
                d="M284.36,303.41c5.1-1.81,12.31-4.72,14.19-7.23,3-4,20.5-30,20.5-30a29,29,0,0,1,1.31,10.14c-3.37,4.56-21,28.18-24.92,28.78-1.21.18-5,.84-10,1.66A28.56,28.56,0,0,0,284.36,303.41ZM377.58,251c-3.81-4.7-9.34-7.77-15.51-9.64-5.61,27.95-12.22,69.35-16.52,73.29-6,5.5-15,8.5-8.27,8.77s7.77-1.77,7.77,1.73a14.24,14.24,0,0,1-.61,4.81,18.82,18.82,0,0,1,2.18-.11c21,.29,31.25-7,31.25-7s7.3-36.21,8.47-45.56S387.51,263.3,377.58,251Z"></path>
            <polyline style="fill:none;stroke:#263238;stroke-linecap:round;stroke-linejoin:round"
                points="318.39 263.18 320.92 275.56 315.39 260.18"></polyline>
        </g>
        <path style="fill:none;stroke:#263238;stroke-linecap:round;stroke-linejoin:round"
            d="M331.73,239.93S316,244.61,313,251.32s-18.65,36.36-18.65,36.36-6.54,4.15-14.85,8.26a23.66,23.66,0,0,1,5.94,10.82c4.92-.82,8.75-1.48,10-1.66,4.34-.67,25.48-29.54,25.48-29.54s1.46,26-.29,36.21c-1.64,9.55-5.31,11.71-4.83,12.43,1.86,3.68,1.86,6.9,13.11,8,3.69.46,12.64-2.36,17.71-2.29,21,.29,31.25-7,31.25-7s7.3-36.21,8.47-45.56,1.17-14-8.76-26.28S346,237.6,331.73,239.93Z"></path>
        <path style="fill:#263238;stroke:#263238;stroke-linecap:round;stroke-linejoin:round"
            d="M357.43,356.45s15.65-.41,24.23-14.6c6.72-11.09,0-22.19-11.38-23.36s-19.22,8.59-29.5,14c-21,11.09-38.84,12.26-50.52,13.72s-9.64,2.92,1.75,7S335.52,361.71,357.43,356.45Z"></path>
        <path style="fill:none;stroke:#fff;stroke-linecap:round;stroke-linejoin:round"
            d="M317.39,343.18s16.3-4.69,30.4-13.59"></path>
        <path style="fill:none;stroke:#263238;stroke-linecap:round;stroke-linejoin:round"
            d="M357.43,356.45s12.26-4.08,19-19.56"></path>
        <path style="fill:#263238;stroke:#263238;stroke-linecap:round;stroke-linejoin:round"
            d="M262.52,310.9s-5.84-1.46-10.22,6.42-.88,17.23,10.8,26S306,357,306.9,357s3.8-12,3.8-12l-38.84-27.45"></path>
        <line style="fill:none;stroke:#fff;stroke-linecap:round;stroke-linejoin:round" x1="280.66"
            x2="277.39" y1="323.85" y2="321.18"></line>
        <line style="fill:none;stroke:#fff;stroke-linecap:round;stroke-linejoin:round" x1="301.89"
            x2="284.53" y1="341.18" y2="327.01"></line>
        <path style="fill:#fff"
            d="M312.16,348s20.15,6.71,27.16,6.71,25.7-2.33,25.11,2.63-6.71,5.84-16.06,5S309,356.75,309,356.75Z"></path>
        <g style="clip-path:url(#freepik--clip-path-8--inject-41)">
            <path style="opacity:0.15"
                d="M312.16,348s20.15,6.71,27.16,6.71,25.7-2.33,25.11,2.63-6.71,5.84-16.06,5S309,356.75,309,356.75Z"></path>
        </g>
        <path style="fill:none;stroke:#263238;stroke-linecap:round;stroke-linejoin:round"
            d="M312.16,348s20.15,6.71,27.16,6.71,25.7-2.33,25.11,2.63-6.71,5.84-16.06,5S309,356.75,309,356.75Z"></path>
        <path style="fill:#fff;stroke:#263238;stroke-linecap:round;stroke-linejoin:round"
            d="M306.32,341l-6.13,15.77a92.19,92.19,0,0,0,9.34,1.46c2.05,0,4.38-13.15,4.38-14S306.32,341,306.32,341Z"></path>
        <path style="fill:#009AAD"
            d="M397.14,317.68h18a15.25,15.25,0,0,1,15.25,15.25v99.62a3.13,3.13,0,0,1-3.13,3.13H385a3.13,3.13,0,0,1-3.13-3.13V332.93a15.25,15.25,0,0,1,15.25-15.25Z"></path>
        <g style="clip-path:url(#freepik--clip-path-9--inject-41)">
            <path style="opacity:0.30000000000000004"
                d="M415.14,317.68h-7.67a15.25,15.25,0,0,1,15.25,15.25v87.5a15.25,15.25,0,0,1-15.25,15.25h20.27a2.65,2.65,0,0,0,2.65-2.65V332.93A15.25,15.25,0,0,0,415.14,317.68Z"></path>
        </g>
        <path style="fill:none;stroke:#263238;stroke-linecap:round;stroke-linejoin:round"
            d="M397.14,317.68h18a15.25,15.25,0,0,1,15.25,15.25v99.62a3.13,3.13,0,0,1-3.13,3.13H385a3.13,3.13,0,0,1-3.13-3.13V332.93a15.25,15.25,0,0,1,15.25-15.25Z"></path>
        <path style="fill:#263238;stroke:#263238;stroke-linecap:round;stroke-linejoin:round"
            d="M319.75,201.39s-12.85,3.79-8.76,8.17,16.36,2.34,16.36,2.34Z"></path>
        <path style="fill:none;stroke:#263238;stroke-linecap:round;stroke-linejoin:round"
            d="M333.48,242.27s7.88,17.81,9.64,14.31,2-20.73,2-20.73Z"></path>
        <path style="fill:#fff"
            d="M322.49,205.77c-3.22,5.46-3.21,12.72-1.26,18.95.59,1.87-3.7,4.7-3.7,5.87s3.21,1.46,3.21,1.46,3.59,11.52,6.51,12.1,15.1-5.09,17.14-6.55,1.76-16.06-1.75-22.2S328.62,200.8,322.49,205.77Z"></path>
        <g style="clip-path:url(#freepik--clip-path-10--inject-41)">
            <path style="fill:#009AAD"
                d="M344.39,237.6c2.05-1.46,1.76-16.06-1.75-22.2a27,27,0,0,0-8.4-8.55c-3.07,3.5-5.49,6.39-5.49,6.39s6.85,11.41,7.61,19.78c.69,7.68-8.88,9.91-10.43,10.22a2.76,2.76,0,0,0,.29.3l1.28.64C330.8,244.44,342.4,239,344.39,237.6Z"></path>
            <path style="fill:#fff;opacity:0.5"
                d="M344.39,237.6c2.05-1.46,1.76-16.06-1.75-22.2a27,27,0,0,0-8.4-8.55c-3.07,3.5-5.49,6.39-5.49,6.39s6.85,11.41,7.61,19.78c.69,7.68-8.88,9.91-10.43,10.22a2.76,2.76,0,0,0,.29.3l1.28.64C330.8,244.44,342.4,239,344.39,237.6Z"></path>
        </g>
        <path style="fill:none;stroke:#263238;stroke-linecap:round;stroke-linejoin:round"
            d="M322.49,205.77c-3.22,5.46-3.21,12.72-1.26,18.95.59,1.87-3.7,4.7-3.7,5.87s3.21,1.46,3.21,1.46,3.59,11.52,6.51,12.1,15.1-5.09,17.14-6.55,1.76-16.06-1.75-22.2S328.62,200.8,322.49,205.77Z"></path>
        <path style="fill:none;stroke:#263238;stroke-linecap:round;stroke-linejoin:round"
            d="M324,223.16l-.26,2.34s3.37,1,4.15-.26"></path>
        <path style="fill:none;stroke:#263238;stroke-linecap:round;stroke-linejoin:round"
            d="M323.52,221.72s1.78-3,5.15-.12"></path>
        <line style="fill:none;stroke:#263238;stroke-linecap:round;stroke-linejoin:round"
            x1="326.85" x2="325.04" y1="226.02" y2="226.79"></line>
        <path style="fill:#263238;stroke:#263238;stroke-linecap:round;stroke-linejoin:round"
            d="M332.9,193.21s-16.07,1.46-16.07,9S337.72,223,337.72,223l3.64,77.67h25.41s-1.17-83.82-1.17-92.29S348.08,190.58,332.9,193.21Z"></path>
        <path style="fill:none;stroke:#fff;stroke-linecap:round;stroke-linejoin:round"
            d="M337.72,223s24.33,19,27.33,38.34"></path>
        <path style="fill:none;stroke:#fff;stroke-linecap:round;stroke-linejoin:round"
            d="M352,276.69q-.07,1.81-.24,3.66"></path>
        <path style="fill:none;stroke:#fff;stroke-linecap:round;stroke-linejoin:round"
            d="M343.39,228.68A123.37,123.37,0,0,1,352,271"></path>
        <path style="fill:none;stroke:#fff;stroke-linecap:round;stroke-linejoin:round"
            d="M344.39,204s12.12,7.92,18.25,25.47"></path>
        <path style="fill:none;stroke:#fff;stroke-linecap:round;stroke-linejoin:round"
            d="M363.92,233.63c.44,1.61.82,3.3,1.13,5.05"></path>
        <path style="fill:#fff"
            d="M383.71,260.08c3.21,4.68,5.55,7.6,3.8,14s-32.42,50.81-36.22,50.52-6.71-2-8.47-7,5-12.85,5-12.85l20.6-36.08s3.91-5.67,8.54-7.57"></path>
        <g style="clip-path:url(#freepik--clip-path-11--inject-41)">
            <path style="opacity:0.15"
                d="M377.81,274.09c-7.61,3-33.47,38-33.47,38s-.61,2.76-1.13,6.49c1.78,4.2,4.55,5.74,8.08,6,3.34.26,27.46-34,34.42-46.68C385.38,276.12,384,271.63,377.81,274.09Z"></path>
        </g>
        <path style="fill:none;stroke:#263238;stroke-linecap:round;stroke-linejoin:round"
            d="M383.71,260.08c3.21,4.68,5.55,7.6,3.8,14s-32.42,50.81-36.22,50.52-6.71-2-8.47-7,5-12.85,5-12.85l20.6-36.08s3.91-5.67,8.54-7.57"></path>
        <path style="fill:#fff"
            d="M354,311.52c-2-7-15.21-42.56-15.21-44.72,0-2.34.58-19.86.58-19.86l-1.17-1.75s-2.92-4.09-4.38-4.09-1.75,1.75-2.33,2.63-3.8,1.46-4.39,2.92l-.58,1.46a4.19,4.19,0,0,0-1.75,2.92c-.29,2.05,4.67,13.14,5.26,16.06s7.88,41.18,9.63,48.48,6.13,14,8.18,14c0,0,5.26-3.51,6.72-7.89"></path>
        <g style="clip-path:url(#freepik--clip-path-12--inject-41)">
            <path style="fill:#009AAD"
                d="M329.13,256.59c0,2.3,10.18,55.23,16.65,71.7a3.37,3.37,0,0,0,2,1.3s5.26-3.51,6.72-7.89L354,311.52c-2-7-15.22-42.56-15.22-44.72,0-2.34.58-19.86.58-19.86l-1.17-1.75S329.13,253.93,329.13,256.59Z"></path>
            <path style="fill:#fff;opacity:0.5"
                d="M329.13,256.59c0,2.3,10.18,55.23,16.65,71.7a3.37,3.37,0,0,0,2,1.3s5.26-3.51,6.72-7.89L354,311.52c-2-7-15.22-42.56-15.22-44.72,0-2.34.58-19.86.58-19.86l-1.17-1.75S329.13,253.93,329.13,256.59Z"></path>
        </g>
        <path style="fill:none;stroke:#263238;stroke-linecap:round;stroke-linejoin:round"
            d="M354,311.52c-2-7-15.21-42.56-15.21-44.72,0-2.34.58-19.86.58-19.86l-1.17-1.75s-2.92-4.09-4.38-4.09-1.75,1.75-2.33,2.63-3.8,1.46-4.39,2.92l-.58,1.46a4.19,4.19,0,0,0-1.75,2.92c-.29,2.05,4.67,13.14,5.26,16.06s7.88,41.18,9.63,48.48,6.13,14,8.18,14c0,0,5.26-3.51,6.72-7.89"></path>
        <path style="fill:#fff"
            d="M354,311.52c-1.14-3.81-4.78-14.07-8.12-23.5-4.42,4.86-7.75,7.41-10.09,8.74,1.65,8.36,3.19,15.95,3.87,18.81,1.75,7.3,6.13,14,8.18,14,0,0,5.26-3.51,6.72-7.89"></path>
        <g style="clip-path:url(#freepik--clip-path-13--inject-41)">
            <path style="opacity:0.15"
                d="M329.13,256.59c0,2.3,10.18,55.23,16.65,71.7a3.37,3.37,0,0,0,2,1.3s6-4.24,7.47-8.62l-1.3-9.45c-2-7-15.22-42.56-15.22-44.72,0-2.34.58-19.86.58-19.86l-1.17-1.75S329.13,253.93,329.13,256.59Z"></path>
        </g>
        <path style="fill:none;stroke:#263238;stroke-linecap:round;stroke-linejoin:round"
            d="M354,311.52c-1.14-3.81-4.78-14.07-8.12-23.5-4.42,4.86-7.75,7.41-10.09,8.74,1.65,8.36,3.19,15.95,3.87,18.81,1.75,7.3,6.13,14,8.18,14,0,0,5.26-3.51,6.72-7.89"></path>
    </g>
</svg>