<svg width="156" height="156" viewBox="0 0 156 156" fill="none" xmlns="http://www.w3.org/2000/svg">
    <path fill-rule="evenodd" clip-rule="evenodd"
        d="M47.9584 9.3335H30.7917C27.377 9.3335 24.1022 10.69 21.6877 13.1045C19.2732 15.519 17.9167 18.7938 17.9167 22.2085V125.208C17.9167 128.623 19.2732 131.898 21.6877 134.312C24.1022 136.727 27.377 138.083 30.7917 138.083H103.75C107.165 138.083 110.439 136.727 112.854 134.312C115.269 131.898 116.625 128.623 116.625 125.208V22.2085C116.625 18.7938 115.269 15.519 112.854 13.1045C110.439 10.69 107.165 9.3335 103.75 9.3335H99.4584V17.9168H103.75C104.888 17.9168 105.98 18.369 106.785 19.1738C107.59 19.9787 108.042 21.0703 108.042 22.2085V125.208C108.042 126.347 107.59 127.438 106.785 128.243C105.98 129.048 104.888 129.5 103.75 129.5H30.7917C29.6535 129.5 28.5619 129.048 27.757 128.243C26.9522 127.438 26.5 126.347 26.5 125.208V22.2085C26.5 21.0703 26.9522 19.9787 27.757 19.1738C28.5619 18.369 29.6535 17.9168 30.7917 17.9168H47.9584V9.3335ZM56.5417 17.9168H90.875V9.3335H56.5417V17.9168Z"
        fill="#009AAD" />
    <path fill-rule="evenodd" clip-rule="evenodd"
        d="M35.0833 56.5417C35.0833 55.4034 35.5355 54.3118 36.3403 53.507C37.1452 52.7022 38.2368 52.25 39.375 52.25H95.1666C96.3049 52.25 97.3965 52.7022 98.2013 53.507C99.0062 54.3118 99.4583 55.4034 99.4583 56.5417C99.4583 57.6799 99.0062 58.7715 98.2013 59.5763C97.3965 60.3812 96.3049 60.8333 95.1666 60.8333H39.375C38.2368 60.8333 37.1452 60.3812 36.3403 59.5763C35.5355 58.7715 35.0833 57.6799 35.0833 56.5417Z"
        fill="#009AAD" />
    <path fill-rule="evenodd" clip-rule="evenodd"
        d="M35.0833 78.0002C35.0833 76.8619 35.5355 75.7703 36.3403 74.9655C37.1452 74.1606 38.2368 73.7085 39.375 73.7085H69.4166C70.5549 73.7085 71.6465 74.1606 72.4513 74.9655C73.2562 75.7703 73.7083 76.8619 73.7083 78.0002C73.7083 79.1384 73.2562 80.23 72.4513 81.0348C71.6465 81.8397 70.5549 82.2918 69.4166 82.2918H39.375C38.2368 82.2918 37.1452 81.8397 36.3403 81.0348C35.5355 80.23 35.0833 79.1384 35.0833 78.0002Z"
        fill="#009AAD" />
    <path fill-rule="evenodd" clip-rule="evenodd"
        d="M35.0833 99.4582C35.0833 98.32 35.5355 97.2283 36.3403 96.4235C37.1452 95.6187 38.2368 95.1665 39.375 95.1665H86.5833C87.7215 95.1665 88.8131 95.6187 89.618 96.4235C90.4228 97.2283 90.875 98.32 90.875 99.4582C90.875 100.596 90.4228 101.688 89.618 102.493C88.8131 103.298 87.7215 103.75 86.5833 103.75H39.375C38.2368 103.75 37.1452 103.298 36.3403 102.493C35.5355 101.688 35.0833 100.596 35.0833 99.4582Z"
        fill="#009AAD" />
    <path fill-rule="evenodd" clip-rule="evenodd"
        d="M9.33333 17.9165V125.208C9.33333 130.899 11.5941 136.357 15.6183 140.382C19.6426 144.406 25.1006 146.667 30.7917 146.667H103.75V155.25H30.7917C22.8241 155.25 15.1829 152.085 9.549 146.451C3.9151 140.817 0.75 133.176 0.75 125.208V17.9165H9.33333Z"
        fill="#009AAD" />
    <path fill-rule="evenodd" clip-rule="evenodd"
        d="M129.5 30.7915C129.5 27.3768 130.856 24.102 133.271 21.6875C135.686 19.273 138.96 17.9165 142.375 17.9165C145.79 17.9165 149.064 19.273 151.479 21.6875C153.894 24.102 155.25 27.3768 155.25 30.7915V117.925L142.375 137.238L129.5 117.925V30.7915ZM142.375 26.4998C141.237 26.4998 140.145 26.952 139.34 27.7568C138.535 28.5617 138.083 29.6533 138.083 30.7915V115.324L142.375 121.762L146.667 115.324V30.7915C146.667 29.6533 146.215 28.5617 145.41 27.7568C144.605 26.952 143.513 26.4998 142.375 26.4998Z"
        fill="#009AAD" />
    <path fill-rule="evenodd" clip-rule="evenodd"
        d="M150.958 47.9583H133.792V39.375H150.958V47.9583Z" fill="#009AAD" />
    <path fill-rule="evenodd" clip-rule="evenodd"
        d="M86.5834 0.75C87.7216 0.75 88.8132 1.20216 89.618 2.007C90.4229 2.81184 90.875 3.90345 90.875 5.04167V22.2083C90.875 23.3466 90.4229 24.4382 89.618 25.243C88.8132 26.0478 87.7216 26.5 86.5834 26.5C85.4451 26.5 84.3535 26.0478 83.5487 25.243C82.7438 24.4382 82.2917 23.3466 82.2917 22.2083V5.04167C82.2917 3.90345 82.7438 2.81184 83.5487 2.007C84.3535 1.20216 85.4451 0.75 86.5834 0.75Z"
        fill="#009AAD" />
    <path fill-rule="evenodd" clip-rule="evenodd"
        d="M43.6667 0.75C44.8049 0.75 45.8965 1.20216 46.7013 2.007C47.5062 2.81184 47.9583 3.90345 47.9583 5.04167V22.2083C47.9583 23.3466 47.5062 24.4382 46.7013 25.243C45.8965 26.0478 44.8049 26.5 43.6667 26.5C42.5284 26.5 41.4368 26.0478 40.632 25.243C39.8272 24.4382 39.375 23.3466 39.375 22.2083V5.04167C39.375 3.90345 39.8272 2.81184 40.632 2.007C41.4368 1.20216 42.5284 0.75 43.6667 0.75Z"
        fill="#009AAD" />
</svg>
