<svg width="151" height="149" viewBox="0 0 151 149" fill="none" xmlns="http://www.w3.org/2000/svg">
    <circle cx="74.5" cy="74.5" r="74.5" fill="#92E7F2" />
    <path
        d="M147.492 16.1175L146.882 15.5075C142.206 10.8308 134.479 10.8308 129.802 15.5075L109.469 36.0442C89.1358 23.4375 62.0925 25.8775 44.4025 43.5675C23.8658 64.3075 23.8658 97.8575 44.4025 118.394C64.9392 139.134 98.4892 139.134 119.026 118.394C136.512 100.908 139.156 73.8642 126.956 53.5308L147.492 32.9942C152.169 28.3175 152.169 20.7942 147.492 16.1175ZM137.936 32.5875C133.666 32.5875 130.412 29.1308 130.412 25.0642C130.412 20.7942 133.869 17.5408 137.936 17.5408C142.002 17.5408 145.459 20.9975 145.459 25.0642C145.459 29.3342 142.206 32.5875 137.936 32.5875Z"
        fill="#009AAD" />
    <path
        d="M49.6892 69.1877C41.3525 87.6911 47.2492 108.431 63.1092 115.548C78.7658 122.664 98.2858 113.311 106.623 94.8077C114.959 76.3044 109.063 55.5644 93.2025 48.4477C77.5458 41.3311 58.0258 50.4811 49.6892 69.1877Z"
        fill="white" />
    <path
        d="M71.6494 97.4508C80.6332 97.4508 87.916 90.168 87.916 81.1841C87.916 72.2003 80.6332 64.9175 71.6494 64.9175C62.6655 64.9175 55.3827 72.2003 55.3827 81.1841C55.3827 90.168 62.6655 97.4508 71.6494 97.4508Z"
        fill="#FFAC01" />
    <circle cx="22" cy="25" r="16" fill="#009C48" />
    <path
        d="M31.3334 17.414C31.4774 17.2829 31.6492 17.1788 31.8388 17.1077C32.0284 17.0366 32.2319 17 32.4376 17C32.6432 17 32.8468 17.0366 33.0364 17.1077C33.226 17.1788 33.3978 17.2829 33.5417 17.414C34.1449 17.9581 34.1534 18.8372 33.5628 19.3906L21.0915 32.5492C20.9499 32.688 20.7781 32.7995 20.5865 32.877C20.395 32.9545 20.1877 32.9962 19.9775 32.9998C19.7672 33.0033 19.5583 32.9685 19.3637 32.8975C19.169 32.8265 18.9926 32.7208 18.8453 32.5869L11.2566 25.7233C10.9639 25.4569 10.8 25.0987 10.8 24.7256C10.8 24.3525 10.9639 23.9943 11.2566 23.7279C11.4005 23.5968 11.5723 23.4927 11.7619 23.4216C11.9515 23.3505 12.1551 23.3139 12.3607 23.3139C12.5664 23.3139 12.7699 23.3505 12.9595 23.4216C13.1491 23.4927 13.3209 23.5968 13.4649 23.7279L19.9019 29.5504L31.2913 17.4554C31.3044 17.4409 31.3185 17.4271 31.3334 17.414Z"
        fill="#F6F6F6" />
</svg>
