<svg width="24" height="24" viewBox="0 0 24 24" fill="none" xmlns="http://www.w3.org/2000/svg">
    <path
        d="M17 0C15.207 0 13.582 0.336 12.312 0.969C11.043 1.602 10 2.633 10 4V8C10 8.129 10.043 8.254 10.063 8.375C9.06203 8.12064 8.03277 7.99463 7 8C5.207 8 3.582 8.336 2.312 8.969C1.043 9.602 0 10.633 0 12V20C0 21.367 1.043 22.398 2.313 23.031C3.582 23.664 5.207 24 7 24C8.793 24 10.418 23.664 11.688 23.031C12.956 22.398 14 21.367 14 20V19.594C14.9782 19.8585 15.9867 19.9949 17 20C18.793 20 20.418 19.664 21.688 19.031C22.956 18.398 24 17.367 24 16V4C24 2.633 22.957 1.602 21.687 0.969C20.419 0.336 18.794 0 17 0ZM17 2C18.523 2 19.879 2.328 20.781 2.781C21.684 3.234 22 3.711 22 4C22 4.29 21.684 4.766 20.781 5.219C19.88 5.672 18.523 6 17 6C15.477 6 14.121 5.672 13.219 5.219C12.316 4.766 12 4.289 12 4C12 3.71 12.316 3.234 13.219 2.781C14.12 2.328 15.477 2 17 2ZM12 6.844C12.105 6.902 12.203 6.977 12.313 7.031C13.582 7.664 15.207 8 17 8C18.793 8 20.418 7.664 21.688 7.031C21.797 6.977 21.895 6.902 22 6.844V8C22 8.29 21.684 8.766 20.781 9.219C19.879 9.672 18.523 10 17 10C15.477 10 14.121 9.672 13.219 9.219C12.316 8.766 12 8.289 12 8V6.844ZM7 10C8.523 10 9.879 10.328 10.781 10.781C11.684 11.234 12 11.711 12 12C12 12.29 11.684 12.766 10.781 13.219C9.879 13.672 8.523 14 7 14C5.477 14 4.121 13.672 3.219 13.219C2.316 12.766 2 12.289 2 12C2 11.71 2.316 11.234 3.219 10.781C4.12 10.328 5.477 10 7 10ZM22 10.844V12C22 12.29 21.684 12.766 20.781 13.219C19.879 13.672 18.523 14 17 14C15.9813 14.0055 14.9684 13.8472 14 13.531V12C14 11.871 13.957 11.746 13.937 11.625C14.867 11.867 15.898 12 17 12C18.793 12 20.418 11.664 21.688 11.031C21.797 10.977 21.895 10.902 22 10.844ZM2 14.844C2.105 14.902 2.203 14.977 2.313 15.031C3.582 15.664 5.207 16 7 16C8.793 16 10.418 15.664 11.688 15.031C11.797 14.977 11.895 14.902 12 14.844V16C12 16.29 11.684 16.766 10.781 17.219C9.879 17.672 8.523 18 7 18C5.477 18 4.121 17.672 3.219 17.219C2.316 16.766 2 16.289 2 16V14.844ZM22 14.844V16C22 16.29 21.684 16.766 20.781 17.219C19.879 17.672 18.523 18 17 18C15.863 18 14.836 17.84 14 17.562V15.625C14.918 15.867 15.918 16 17 16C18.793 16 20.418 15.664 21.688 15.031C21.797 14.977 21.895 14.902 22 14.844ZM2 18.844C2.105 18.902 2.203 18.977 2.313 19.031C3.582 19.664 5.207 20 7 20C8.793 20 10.418 19.664 11.688 19.031C11.797 18.977 11.895 18.902 12 18.844V20C12 20.29 11.684 20.766 10.781 21.219C9.879 21.672 8.523 22 7 22C5.477 22 4.121 21.672 3.219 21.219C2.316 20.766 2 20.289 2 20V18.844Z"
        fill="#009AAD" />
</svg>
