<svg width="23" height="16" viewBox="0 0 23 16" fill="none" xmlns="http://www.w3.org/2000/svg">
    <path
        d="M21.85 0H1.15C0.845001 0 0.552494 0.120408 0.336827 0.334735C0.12116 0.549063 0 0.839753 0 1.14286V5.71429H1.02695C2.17235 5.71429 3.23495 6.49257 3.41895 7.616C3.475 7.94404 3.45835 8.28029 3.37015 8.60128C3.28195 8.92226 3.12433 9.22026 2.90828 9.47446C2.69224 9.72866 2.42298 9.93295 2.1193 10.0731C1.81561 10.2132 1.48482 10.2858 1.15 10.2857H0V14.8571C0 15.1602 0.12116 15.4509 0.336827 15.6653C0.552494 15.8796 0.845001 16 1.15 16H21.85C22.155 16 22.4475 15.8796 22.6632 15.6653C22.8788 15.4509 23 15.1602 23 14.8571V10.2857H21.85C21.5152 10.2858 21.1844 10.2132 20.8807 10.0731C20.577 9.93295 20.3078 9.72866 20.0917 9.47446C19.8757 9.22026 19.7181 8.92226 19.6299 8.60128C19.5416 8.28029 19.525 7.94404 19.5811 7.616C19.7651 6.49257 20.8277 5.71429 21.973 5.71429H23V1.14286C23 0.839753 22.8788 0.549063 22.6632 0.334735C22.4475 0.120408 22.155 0 21.85 0ZM8.05 4.57143C8.355 4.57143 8.64751 4.69184 8.86317 4.90616C9.07884 5.12049 9.2 5.41118 9.2 5.71429C9.2 6.01739 9.07884 6.30808 8.86317 6.52241C8.64751 6.73674 8.355 6.85714 8.05 6.85714C7.745 6.85714 7.45249 6.73674 7.23683 6.52241C7.02116 6.30808 6.9 6.01739 6.9 5.71429C6.9 5.41118 7.02116 5.12049 7.23683 4.90616C7.45249 4.69184 7.745 4.57143 8.05 4.57143ZM7.13 11.8857L14.03 2.74286L15.87 4.11429L8.97 13.2571L7.13 11.8857ZM14.95 11.4286C14.645 11.4286 14.3525 11.3082 14.1368 11.0938C13.9212 10.8795 13.8 10.5888 13.8 10.2857C13.8 9.98261 13.9212 9.69192 14.1368 9.47759C14.3525 9.26327 14.645 9.14286 14.95 9.14286C15.255 9.14286 15.5475 9.26327 15.7632 9.47759C15.9788 9.69192 16.1 9.98261 16.1 10.2857C16.1 10.5888 15.9788 10.8795 15.7632 11.0938C15.5475 11.3082 15.255 11.4286 14.95 11.4286Z"
        fill="#009AAD" />
</svg>
