<svg fill="none" height="19" viewBox="0 0 21 19" width="21" xmlns="http://www.w3.org/2000/svg">
    <path
        d="M10.1539 2.90088L11.5407 5.58659L14.5056 6.01741L12.3298 7.97784L13.055 10.879L10.1539 9.24708L7.25281 10.879L7.97809 7.97784L5.80225 6.01741L8.84842 5.58659L10.1539 2.90088Z"
        fill="#009AAD" />
    <path
        d="M11.413 18.8573L10.1539 18.132L13.055 13.055H17.4067C17.5973 13.0553 17.786 13.018 17.9622 12.9452C18.1383 12.8724 18.2983 12.7656 18.4331 12.6308C18.5678 12.4961 18.6747 12.336 18.7474 12.1599C18.8202 11.9838 18.8576 11.7951 18.8573 11.6045V2.90112C18.8576 2.71055 18.8202 2.5218 18.7474 2.34568C18.6747 2.16956 18.5678 2.00953 18.4331 1.87478C18.2983 1.74003 18.1383 1.63319 17.9622 1.56039C17.786 1.4876 17.5973 1.45027 17.4067 1.45056H2.90112C2.71055 1.45027 2.5218 1.4876 2.34568 1.56039C2.16956 1.63319 2.00953 1.74003 1.87478 1.87478C1.74003 2.00953 1.63319 2.16956 1.56039 2.34568C1.4876 2.5218 1.45027 2.71055 1.45056 2.90112V11.6045C1.45027 11.7951 1.4876 11.9838 1.56039 12.1599C1.63319 12.336 1.74003 12.4961 1.87478 12.6308C2.00953 12.7656 2.16956 12.8724 2.34568 12.9452C2.5218 13.018 2.71055 13.0553 2.90112 13.055H9.42864V14.5056H2.90112C2.1317 14.5056 1.39378 14.1999 0.849719 13.6559C0.305653 13.1118 9.07138e-08 12.3739 9.07138e-08 11.6045V2.90112C-9.51969e-05 2.52011 0.0748794 2.14282 0.220641 1.7908C0.366402 1.43877 0.580093 1.11892 0.849506 0.849506C1.11892 0.580093 1.43877 0.366402 1.7908 0.220641C2.14282 0.0748796 2.52011 -9.51969e-05 2.90112 9.07135e-08H17.4067C17.7877 -9.51969e-05 18.165 0.0748796 18.517 0.220641C18.8691 0.366402 19.1889 0.580093 19.4583 0.849506C19.7278 1.11892 19.9414 1.43877 20.0872 1.7908C20.233 2.14282 20.3079 2.52011 20.3078 2.90112V11.6045C20.3078 12.3739 20.0022 13.1118 19.4581 13.6559C18.9141 14.1999 18.1761 14.5056 17.4067 14.5056H13.9L11.413 18.8573Z"
        fill="#009AAD" />
</svg>
