<svg width="23" height="18" viewBox="0 0 23 18" fill="none" xmlns="http://www.w3.org/2000/svg">
    <path
        d="M8.99168 14.0812L1.28318 8.54625C1.10162 8.43895 0.951152 8.28619 0.846629 8.10301C0.742106 7.91984 0.687134 7.71258 0.687134 7.50168C0.687134 7.29079 0.742106 7.08353 0.846629 6.90036C0.951152 6.71718 1.10162 6.56441 1.28318 6.45712L8.99168 0.918747C9.17544 0.810665 9.38452 0.753127 9.5977 0.751971C9.81088 0.750815 10.0206 0.806083 10.2055 0.912166C10.3904 1.01825 10.544 1.17137 10.6506 1.35598C10.7572 1.54059 10.813 1.75013 10.8125 1.96331V4.125C13.3437 4.125 20.9375 4.125 22.625 17.625C18.4062 10.0312 10.8125 10.875 10.8125 10.875V13.0367C10.8125 13.9817 9.78987 14.5521 8.99168 14.0829V14.0812Z"
        fill="#4ECB71" />
</svg>
