<svg width="22" height="21" viewBox="0 0 22 21" fill="none" xmlns="http://www.w3.org/2000/svg">
    <path
        d="M21.4068 9.52435C21.6535 9.34055 21.8365 9.08415 21.9301 8.79109C22.0237 8.49804 22.0233 8.18302 21.9289 7.89021C21.8345 7.59741 21.6508 7.3415 21.4036 7.15837C21.1565 6.97524 20.8582 6.87407 20.5506 6.86904L14.5773 6.64334C14.548 6.64131 14.5198 6.63084 14.4963 6.61317C14.4727 6.5955 14.4548 6.5714 14.4446 6.54377L12.3805 0.967628C12.2768 0.683935 12.0884 0.438968 11.8409 0.265894C11.5934 0.0928205 11.2987 0 10.9967 0C10.6947 0 10.4 0.0928205 10.1525 0.265894C9.90494 0.438968 9.71657 0.683935 9.61287 0.967628L7.5554 6.56368C7.54523 6.59132 7.52728 6.61542 7.50373 6.63308C7.48018 6.65075 7.45202 6.66123 7.42266 6.66326L1.44935 6.88896C1.1418 6.89398 0.843527 6.99515 0.596362 7.17828C0.349196 7.36142 0.165532 7.61733 0.0711202 7.91013C-0.0232913 8.20293 -0.0237148 8.51795 0.0699088 8.81101C0.163532 9.10406 0.346508 9.36047 0.59318 9.54426L5.2789 13.2285C5.30235 13.247 5.31988 13.2719 5.32932 13.3002C5.33876 13.3285 5.33969 13.359 5.332 13.3878L3.71921 19.1034C3.63563 19.3944 3.64373 19.7041 3.7424 19.9904C3.84106 20.2767 4.02551 20.5256 4.27064 20.7034C4.51578 20.8811 4.8097 20.979 5.11242 20.9837C5.41514 20.9884 5.71196 20.8997 5.96251 20.7297L10.9137 17.4106C10.9381 17.3938 10.967 17.3847 10.9967 17.3847C11.0263 17.3847 11.0553 17.3938 11.0796 17.4106L16.0308 20.7297C16.278 20.9055 16.5738 21 16.8771 21C17.1804 21 17.4761 20.9055 17.7233 20.7297C17.9685 20.5537 18.1531 20.306 18.2518 20.0207C18.3504 19.7354 18.3582 19.4265 18.2742 19.1366L16.6481 13.4011C16.6395 13.3723 16.6399 13.3415 16.6495 13.313C16.659 13.2845 16.677 13.2596 16.7012 13.2418L21.4068 9.52435Z"
        fill="black" fill-opacity="0.2" />
</svg>
