<svg width="11" height="11" viewBox="0 0 11 11" fill="none" xmlns="http://www.w3.org/2000/svg">
    <path
        d="M10.6554 5.33838C10.7699 5.24904 10.8548 5.1244 10.8982 4.98194C10.9417 4.83948 10.9415 4.68635 10.8977 4.54401C10.8539 4.40168 10.7686 4.27728 10.654 4.18825C10.5393 4.09923 10.4009 4.05005 10.2582 4.04761L7.48645 3.93789C7.47282 3.93691 7.45976 3.93182 7.44883 3.92323C7.4379 3.91464 7.42958 3.90292 7.42486 3.88949L6.46708 1.17887C6.41896 1.04096 6.33156 0.921883 6.21671 0.83775C6.10186 0.753617 5.96511 0.708496 5.82497 0.708496C5.68484 0.708496 5.54809 0.753617 5.43324 0.83775C5.31839 0.921883 5.23098 1.04096 5.18286 1.17887L4.22816 3.89917C4.22345 3.9126 4.21512 3.92432 4.20419 3.93291C4.19326 3.9415 4.1802 3.94659 4.16657 3.94758L1.39487 4.05729C1.25216 4.05973 1.11376 4.10891 0.999072 4.19794C0.884383 4.28696 0.79916 4.41136 0.755352 4.55369C0.711544 4.69603 0.711347 4.84916 0.75479 4.99162C0.798233 5.13408 0.883136 5.25872 0.997595 5.34806L3.17184 7.13901C3.18272 7.14798 3.19085 7.1601 3.19523 7.17386C3.19961 7.18763 3.20004 7.20244 3.19648 7.21645L2.44812 9.99484C2.40934 10.1363 2.4131 10.2869 2.45888 10.4261C2.50466 10.5652 2.59025 10.6862 2.70399 10.7726C2.81774 10.859 2.95412 10.9066 3.09459 10.9089C3.23505 10.9112 3.37279 10.8681 3.48904 10.7854L5.78648 9.17197C5.79779 9.16379 5.81122 9.1594 5.82497 9.1594C5.83872 9.1594 5.85215 9.16379 5.86347 9.17197L8.1609 10.7854C8.27559 10.8709 8.41282 10.9168 8.55356 10.9168C8.69429 10.9168 8.83153 10.8709 8.94621 10.7854C9.05999 10.6999 9.14565 10.5794 9.19143 10.4408C9.2372 10.3021 9.24084 10.1519 9.20183 10.011L8.44731 7.22291C8.44331 7.20891 8.44353 7.19396 8.44794 7.1801C8.45235 7.16624 8.46073 7.15415 8.47194 7.14546L10.6554 5.33838Z"
        fill="url(#paint0_linear_967_2007)" />
    <defs>
        <linearGradient id="paint0_linear_967_2007" x1="-1.52348" y1="1.98454" x2="11.2528"
            y2="10.4295" gradientUnits="userSpaceOnUse">
            <stop offset="0.261147" stop-color="#FFC700" />
            <stop offset="1" stop-color="#FF9900" />
        </linearGradient>
    </defs>
</svg>
