<svg width="21" height="21" viewBox="0 0 21 21" fill="none" xmlns="http://www.w3.org/2000/svg">
    <path
        d="M20.4338 9.52435C20.6692 9.34055 20.8439 9.08415 20.9333 8.79109C21.0226 8.49804 21.0222 8.18302 20.9321 7.89021C20.842 7.59741 20.6667 7.3415 20.4307 7.15837C20.1948 6.97524 19.9101 6.87407 19.6165 6.86904L13.9147 6.64334C13.8867 6.64131 13.8598 6.63084 13.8373 6.61317C13.8149 6.5955 13.7977 6.5714 13.788 6.54377L11.8177 0.967628C11.7188 0.683935 11.539 0.438968 11.3027 0.265894C11.0664 0.0928205 10.7851 0 10.4968 0C10.2086 0 9.92724 0.0928205 9.69098 0.265894C9.45471 0.438968 9.27491 0.683935 9.17592 0.967628L7.21197 6.56368C7.20226 6.59132 7.18513 6.61542 7.16265 6.63308C7.14017 6.65075 7.1133 6.66123 7.08526 6.66326L1.38347 6.88896C1.0899 6.89398 0.805185 6.99515 0.569254 7.17828C0.333324 7.36142 0.158007 7.61733 0.0678874 7.91013C-0.0222326 8.20293 -0.0226369 8.51795 0.0667311 8.81101C0.156099 9.10406 0.330758 9.36047 0.566218 9.54426L5.03895 13.2285C5.06134 13.247 5.07807 13.2719 5.08708 13.3002C5.09609 13.3285 5.09697 13.359 5.08964 13.3878L3.55015 19.1034C3.47038 19.3944 3.47811 19.7041 3.57229 19.9904C3.66647 20.2767 3.84253 20.5256 4.07652 20.7034C4.31051 20.8811 4.59107 20.979 4.88003 20.9837C5.169 20.9884 5.45233 20.8997 5.69149 20.7297L10.4176 17.4106C10.4409 17.3938 10.4685 17.3847 10.4968 17.3847C10.5251 17.3847 10.5527 17.3938 10.576 17.4106L15.3022 20.7297C15.5381 20.9055 15.8204 21 16.1099 21C16.3994 21 16.6818 20.9055 16.9177 20.7297C17.1517 20.5537 17.328 20.306 17.4221 20.0207C17.5163 19.7354 17.5238 19.4265 17.4435 19.1366L15.8914 13.4011C15.8831 13.3723 15.8836 13.3415 15.8927 13.313C15.9017 13.2845 15.919 13.2596 15.942 13.2418L20.4338 9.52435Z"
        fill="url(#paint0_linear_947_230)" />
    <defs>
        <linearGradient id="paint0_linear_947_230" x1="-4.62" y1="2.625" x2="21.6627" y2="19.9974"
            gradientUnits="userSpaceOnUse">
            <stop offset="0.261147" stop-color="#FFC700" />
            <stop offset="1" stop-color="#FF9900" />
        </linearGradient>
    </defs>
</svg>
