<svg width="24" height="23" viewBox="0 0 24 23" fill="none" xmlns="http://www.w3.org/2000/svg">
    <path
        d="M1.79029 0.122798L22.8603 10.1998C23.0733 10.3015 23.2531 10.4614 23.379 10.661C23.5049 10.8606 23.5717 11.0918 23.5717 11.3278C23.5717 11.5638 23.5049 11.795 23.379 11.9946C23.2531 12.1942 23.0733 12.3541 22.8603 12.4558L1.79029 22.5328C1.57429 22.6363 1.33312 22.6755 1.09547 22.6458C0.857819 22.6161 0.633693 22.5188 0.449759 22.3655C0.265825 22.2121 0.129826 22.0091 0.0579445 21.7806C-0.0139374 21.5522 -0.0186765 21.3079 0.0442913 21.0768L2.15229 13.3488C2.1781 13.2541 2.23121 13.1691 2.30501 13.1043C2.3788 13.0396 2.47002 12.998 2.56729 12.9848L12.7773 11.5978C12.82 11.5917 12.8604 11.5747 12.8945 11.5484C12.9287 11.5222 12.9555 11.4875 12.9723 11.4478L12.9903 11.3858C12.9982 11.33 12.987 11.2731 12.9585 11.2245C12.93 11.1758 12.8858 11.1382 12.8333 11.1178L12.7783 11.1028L2.57829 9.7158C2.4812 9.70238 2.3902 9.66072 2.3166 9.59601C2.24299 9.53129 2.19003 9.44637 2.16429 9.3518L0.0442913 1.5798C-0.0189315 1.34866 -0.0143853 1.10422 0.0573883 0.875598C0.129162 0.646973 0.265138 0.443795 0.449121 0.290265C0.633104 0.136735 0.85734 0.0393237 1.09512 0.009633C1.3329 -0.0200577 1.5742 0.0192236 1.79029 0.122798Z"
        fill="#009AAD" />
</svg>
