<svg width="26" height="20" viewBox="0 0 26 20" fill="none" xmlns="http://www.w3.org/2000/svg">
    <path d="M16.7143 1.66675V4.14294" stroke="#009AAD" stroke-width="2" stroke-linecap="round"
        stroke-linejoin="round" />
    <path d="M16.7143 9.09521V11.5714" stroke="#009AAD" stroke-width="2" stroke-linecap="round"
        stroke-linejoin="round" />
    <path d="M16.7143 16.5239V19.0001" stroke="#009AAD" stroke-width="2" stroke-linecap="round"
        stroke-linejoin="round" />
    <path
        d="M4.33337 1.66675H21.6667C22.3234 1.66675 22.9533 1.92763 23.4176 2.39201C23.882 2.85638 24.1429 3.48621 24.1429 4.14294V7.85722C23.4862 7.85722 22.8563 8.11811 22.392 8.58248C21.9276 9.04686 21.6667 9.67669 21.6667 10.3334C21.6667 10.9901 21.9276 11.62 22.392 12.0843C22.8563 12.5487 23.4862 12.8096 24.1429 12.8096V16.5239C24.1429 17.1806 23.882 17.8104 23.4176 18.2748C22.9533 18.7392 22.3234 19.0001 21.6667 19.0001H4.33337C3.67664 19.0001 3.04681 18.7392 2.58244 18.2748C2.11806 17.8104 1.85718 17.1806 1.85718 16.5239V12.8096C2.5139 12.8096 3.14373 12.5487 3.60811 12.0843C4.07248 11.62 4.33337 10.9901 4.33337 10.3334C4.33337 9.67669 4.07248 9.04686 3.60811 8.58248C3.14373 8.11811 2.5139 7.85722 1.85718 7.85722V4.14294C1.85718 3.48621 2.11806 2.85638 2.58244 2.39201C3.04681 1.92763 3.67664 1.66675 4.33337 1.66675"
        stroke="#009AAD" stroke-width="2" stroke-linecap="round" stroke-linejoin="round" />
</svg>
